<?xml version="1.0" encoding="utf-8"?>
<svg height="400" preserveAspectRatio="none" style="fill:rgb(255,255,255);fill-opacity:0;stroke:rgb(0,0,0);stroke-opacity:1;stroke-width:2" transform="matrix(1 0 0 -1 0 0) matrix(1 0 0 1 0 -400)" viewBox="0 0 3 400" width="400">
	<rect height="400" rx="0" ry="0" style="fill:rgb(255,255,255);fill-opacity:1;stroke:rgb(0,0,0);stroke-opacity:1;stroke-width:0" width="3" x="0" y="0"/>
	<polygon points="0,0 0.00390625,7.812 0.0078125,15.621 0.0117188,23.4241 0.015625,31.2182 0.0195312,39.0004 0.0234375,46.7678 0.0273438,54.5173 0.03125,62.246 0.0351562,69.951 0.0390625,77.6292 0.0429688,85.2779 0.046875,92.894 0.0507812,100.475 0.0546875,108.017 0.0585938,115.518 0.0625,122.975 0.0664062,130.386 0.0703125,137.746 0.0742188,145.054 0.078125,152.307 0.0820312,159.501 0.0859375,166.635 0.0898438,173.705 0.09375,180.709 0.0976562,187.643 0.101562,194.507 0.105469,201.296 0.109375,208.008 0.113281,214.641 0.117188,221.192 0.121094,227.659 0.125,234.039 0.128906,240.33 0.132812,246.528 0.136719,252.633 0.140625,258.642 0.144531,264.552 0.148438,270.361 0.152344,276.066 0.15625,281.667 0.160156,287.16 0.164062,292.544 0.167969,297.816 0.171875,302.974 0.175781,308.017 0.179688,312.942 0.183594,317.748 0.1875,322.432 0.191406,326.994 0.195312,331.431 0.199219,335.742 0.203125,339.924 0.207031,343.977 0.210938,347.898 0.214844,351.687 0.21875,355.342 0.222656,358.861 0.226562,362.243 0.230469,365.488 0.234375,368.592 0.238281,371.556 0.242188,374.379 0.246094,377.058 0.25,379.594 0.253906,381.985 0.257812,384.23 0.261719,386.329 0.265625,388.28 0.269531,390.083 0.273438,391.737 0.277344,393.242 0.28125,394.597 0.285156,395.801 0.289062,396.855 0.292969,397.757 0.296875,398.507 0.300781,399.105 0.304688,399.552 0.308594,399.845 0.3125,399.986 0.316406,399.975 0.320312,399.811 0.324219,399.494 0.328125,399.025 0.332031,398.404 0.335938,397.631 0.339844,396.706 0.34375,395.63 0.347656,394.403 0.351562,393.025 0.355469,391.498 0.359375,389.821 0.363281,387.996 0.367188,386.022 0.371094,383.901 0.375,381.634 0.378906,379.222 0.382812,376.664 0.386719,373.963 0.390625,371.119 0.394531,368.134 0.398438,365.008 0.402344,361.743 0.40625,358.34 0.410156,354.801 0.414062,351.126 0.417969,347.317 0.421875,343.375 0.425781,339.303 0.429688,335.101 0.433594,330.772 0.4375,326.316 0.441406,321.735 0.445312,317.032 0.449219,312.208 0.453125,307.265 0.457031,302.205 0.460938,297.03 0.464844,291.741 0.46875,286.341 0.472656,280.831 0.476562,275.215 0.480469,269.493 0.484375,263.669 0.488281,257.744 0.492188,251.721 0.496094,245.602 0.5,239.389 0.503906,233.085 0.507812,226.692 0.511719,220.212 0.515625,213.648 0.519531,207.003 0.523438,200.279 0.527344,193.479 0.53125,186.605 0.535156,179.659 0.539062,172.645 0.542969,165.565 0.546875,158.422 0.550781,151.219 0.554688,143.958 0.558594,136.642 0.5625,129.274 0.566406,121.856 0.570312,114.392 0.574219,106.885 0.578125,99.3366 0.582031,91.7503 0.585938,84.1291 0.589844,76.4758 0.59375,68.7933 0.597656,61.0846 0.601562,53.3526 0.605469,45.6002 0.609375,37.8304 0.613281,30.0462 0.617188,22.2506 0.621094,14.4464 0.625,6.63676 0.628906,1.17544 0.632812,8.98718 0.636719,16.7955 0.640625,24.5974 0.644531,32.3899 0.648438,40.1701 0.652344,47.935 0.65625,55.6815 0.660156,63.4068 0.664062,71.108 0.667969,78.782 0.671875,86.426 0.675781,94.0369 0.679688,101.612 0.683594,109.148 0.6875,116.643 0.691406,124.093 0.695312,131.496 0.699219,138.849 0.703125,146.149 0.707031,153.393 0.710938,160.578 0.714844,167.703 0.71875,174.763 0.722656,181.756 0.726562,188.681 0.730469,195.533 0.734375,202.311 0.738281,209.011 0.742188,215.632 0.746094,222.171 0.75,228.625 0.753906,234.991 0.757812,241.268 0.761719,247.453 0.765625,253.544 0.769531,259.537 0.773438,265.432 0.777344,271.226 0.78125,276.916 0.785156,282.5 0.789062,287.977 0.792969,293.344 0.796875,298.599 0.800781,303.74 0.804688,308.765 0.808594,313.673 0.8125,318.46 0.816406,323.127 0.820312,327.67 0.824219,332.088 0.828125,336.379 0.832031,340.542 0.835938,344.575 0.839844,348.477 0.84375,352.246 0.847656,355.88 0.851562,359.379 0.855469,362.74 0.859375,365.964 0.863281,369.047 0.867188,371.99 0.871094,374.791 0.875,377.449 0.878906,379.963 0.882812,382.332 0.886719,384.555 0.890625,386.632 0.894531,388.561 0.898438,390.341 0.902344,391.973 0.90625,393.456 0.910156,394.788 0.914062,395.97 0.917969,397 0.921875,397.88 0.925781,398.607 0.929688,399.182 0.933594,399.605 0.9375,399.876 0.941406,399.994 0.945312,399.96 0.949219,399.773 0.953125,399.433 0.957031,398.941 0.960938,398.297 0.964844,397.501 0.96875,396.554 0.972656,395.455 0.976562,394.205 0.980469,392.805 0.984375,391.255 0.988281,389.556 0.992188,387.708 0.996094,385.713 1,383.57 1.00391,381.281 1.00781,378.846 1.01172,376.267 1.01562,373.544 1.01953,370.679 1.02344,367.673 1.02734,364.526 1.03125,361.24 1.03516,357.817 1.03906,354.256 1.04297,350.561 1.04688,346.732 1.05078,342.771 1.05469,338.679 1.05859,334.458 1.0625,330.109 1.06641,325.635 1.07031,321.036 1.07422,316.314 1.07812,311.472 1.08203,306.511 1.08594,301.434 1.08984,296.241 1.09375,290.935 1.09766,285.519 1.10156,279.993 1.10547,274.361 1.10938,268.623 1.11328,262.784 1.11719,256.844 1.12109,250.806 1.125,244.673 1.12891,238.446 1.13281,232.128 1.13672,225.722 1.14062,219.23 1.14453,212.654 1.14844,205.997 1.15234,199.261 1.15625,192.449 1.16016,185.564 1.16406,178.608 1.16797,171.584 1.17188,164.495 1.17578,157.342 1.17969,150.13 1.18359,142.861 1.1875,135.537 1.19141,128.161 1.19531,120.736 1.19922,113.266 1.20312,105.752 1.20703,98.1975 1.21094,90.6059 1.21484,82.9796 1.21875,75.3217 1.22266,67.6351 1.22656,59.9227 1.23047,52.1874 1.23438,44.4322 1.23828,36.6601 1.24219,28.874 1.24609,21.0769 1.25,13.2717 1.25391,5.46145 1.25781,2.35086 1.26172,10.1623 1.26562,17.9698 1.26953,25.7705 1.27344,33.5614 1.27734,41.3394 1.28125,49.1017 1.28516,56.8453 1.28906,64.5671 1.29297,72.2644 1.29688,79.9341 1.30078,87.5733 1.30469,95.179 1.30859,102.749 1.3125,110.279 1.31641,117.767 1.32031,125.21 1.32422,132.606 1.32812,139.951 1.33203,147.242 1.33594,154.478 1.33984,161.654 1.34375,168.769 1.34766,175.819 1.35156,182.803 1.35547,189.716 1.35938,196.558 1.36328,203.324 1.36719,210.013 1.37109,216.621 1.375,223.147 1.37891,229.588 1.38281,235.941 1.38672,242.205 1.39062,248.375 1.39453,254.452 1.39844,260.431 1.40234,266.31 1.40625,272.089 1.41016,277.763 1.41406,283.331 1.41797,288.792 1.42188,294.142 1.42578,299.38 1.42969,304.504 1.43359,309.511 1.4375,314.401 1.44141,319.17 1.44531,323.818 1.44922,328.342 1.45312,332.742 1.45703,337.014 1.46094,341.157 1.46484,345.171 1.46875,349.053 1.47266,352.801 1.47656,356.415 1.48047,359.893 1.48438,363.234 1.48828,366.436 1.49219,369.499 1.49609,372.421 1.5,375.2 1.50391,377.836 1.50781,380.329 1.51172,382.676 1.51562,384.877 1.51953,386.931 1.52344,388.838 1.52734,390.596 1.53125,392.206 1.53516,393.666 1.53906,394.975 1.54297,396.134 1.54688,397.142 1.55078,397.999 1.55469,398.703 1.55859,399.256 1.5625,399.656 1.56641,399.904 1.57031,399.999 1.57422,399.941 1.57812,399.731 1.58203,399.369 1.58594,398.854 1.58984,398.187 1.59375,397.369 1.59766,396.398 1.60156,395.277 1.60547,394.004 1.60938,392.581 1.61328,391.009 1.61719,389.287 1.62109,387.417 1.625,385.4 1.62891,383.235 1.63281,380.924 1.63672,378.467 1.64062,375.866 1.64453,373.122 1.64844,370.236 1.65234,367.208 1.65625,364.04 1.66016,360.734 1.66406,357.29 1.66797,353.709 1.67188,349.994 1.67578,346.145 1.67969,342.164 1.68359,338.052 1.6875,333.812 1.69141,329.444 1.69531,324.95 1.69922,320.333 1.70312,315.593 1.70703,310.733 1.71094,305.755 1.71484,300.66 1.71875,295.45 1.72266,290.127 1.72656,284.694 1.73047,279.152 1.73438,273.504 1.73828,267.751 1.74219,261.897 1.74609,255.942 1.75,249.89 1.75391,243.742 1.75781,237.501 1.76172,231.17 1.76562,224.751 1.76953,218.246 1.77344,211.657 1.77734,204.988 1.78125,198.241 1.78516,191.418 1.78906,184.522 1.79297,177.556 1.79688,170.522 1.80078,163.422 1.80469,156.261 1.80859,149.04 1.8125,141.762 1.81641,134.43 1.82031,127.047 1.82422,119.615 1.82812,112.138 1.83203,104.618 1.83594,97.0576 1.83984,89.4606 1.84375,81.8294 1.84766,74.167 1.85156,66.4763 1.85547,58.7603 1.85938,51.0218 1.86328,43.2639 1.86719,35.4895 1.87109,27.7015 1.875,19.903 1.87891,12.0968 1.88281,4.2861 1.88672,3.52627 1.89062,11.3373 1.89453,19.144 1.89844,26.9434 1.90234,34.7325 1.90625,42.5084 1.91016,50.2681 1.91406,58.0085 1.91797,65.7269 1.92188,73.4202 1.92578,81.0854 1.92969,88.7198 1.93359,96.3203 1.9375,103.884 1.94141,111.408 1.94531,118.89 1.94922,126.326 1.95312,133.714 1.95703,141.051 1.96094,148.335 1.96484,155.561 1.96875,162.729 1.97266,169.834 1.97656,176.874 1.98047,183.847 1.98438,190.75 1.98828,197.581 1.99219,204.335 1.99609,211.012 2,217.608 2.00391,224.122 2.00781,230.55 2.01172,236.889 2.01562,243.139 2.01953,249.296 2.02344,255.357 2.02734,261.322 2.03125,267.186 2.03516,272.949 2.03906,278.608 2.04297,284.16 2.04688,289.604 2.05078,294.937 2.05469,300.158 2.05859,305.264 2.0625,310.254 2.06641,315.126 2.07031,319.877 2.07422,324.507 2.07812,329.012 2.08203,333.392 2.08594,337.645 2.08984,341.77 2.09375,345.763 2.09766,349.625 2.10156,353.354 2.10547,356.947 2.10938,360.405 2.11328,363.725 2.11719,366.906 2.12109,369.948 2.125,372.848 2.12891,375.606 2.13281,378.221 2.13672,380.691 2.14062,383.016 2.14453,385.195 2.14844,387.228 2.15234,389.112 2.15625,390.848 2.16016,392.435 2.16406,393.872 2.16797,395.159 2.17188,396.296 2.17578,397.281 2.17969,398.114 2.18359,398.796 2.1875,399.326 2.19141,399.703 2.19531,399.928 2.19922,400 2.20312,399.92 2.20703,399.687 2.21094,399.301 2.21484,398.764 2.21875,398.074 2.22266,397.232 2.22656,396.239 2.23047,395.095 2.23438,393.8 2.23828,392.354 2.24219,390.76 2.24609,389.016 2.25,387.123 2.25391,385.083 2.25781,382.896 2.26172,380.563 2.26562,378.085 2.26953,375.463 2.27344,372.697 2.27734,369.789 2.28125,366.741 2.28516,363.552 2.28906,360.224 2.29297,356.76 2.29688,353.159 2.30078,349.423 2.30469,345.554 2.30859,341.553 2.3125,337.422 2.31641,333.163 2.32031,328.776 2.32422,324.264 2.32812,319.628 2.33203,314.87 2.33594,309.992 2.33984,304.996 2.34375,299.883 2.34766,294.656 2.35156,289.317 2.35547,283.867 2.35938,278.309 2.36328,272.645 2.36719,266.877 2.37109,261.007 2.375,255.037 2.37891,248.971 2.38281,242.809 2.38672,236.555 2.39062,230.21 2.39453,223.777 2.39844,217.26 2.40234,210.659 2.40625,203.978 2.41016,197.219 2.41406,190.385 2.41797,183.478 2.42188,176.502 2.42578,169.458 2.42969,162.349 2.43359,155.178 2.4375,147.949 2.44141,140.662 2.44531,133.322 2.44922,125.932 2.45312,118.493 2.45703,111.009 2.46094,103.483 2.46484,95.9169 2.46875,88.3145 2.47266,80.6785 2.47656,73.0116 2.48047,65.3169 2.48438,57.5973 2.48828,49.8558 2.49219,42.0952 2.49609,34.3185 2.5,26.5288 2.50391,18.7289 2.50781,10.9219 2.51172,3.11071 2.51562,4.70165 2.51953,12.5122 2.52344,20.318 2.52734,28.1161 2.53125,35.9034 2.53516,43.677 2.53906,51.434 2.54297,59.1713 2.54688,66.8861 2.55078,74.5753 2.55469,82.2361 2.55859,89.8656 2.5625,97.4607 2.56641,105.019 2.57031,112.537 2.57422,120.012 2.57812,127.441 2.58203,134.821 2.58594,142.151 2.58984,149.426 2.59375,156.644 2.59766,163.802 2.60156,170.897 2.60547,177.928 2.60938,184.891 2.61328,191.783 2.61719,198.602 2.62109,205.345 2.625,212.01 2.62891,218.594 2.63281,225.094 2.63672,231.509 2.64062,237.836 2.64453,244.071 2.64844,250.214 2.65234,256.261 2.65625,262.211 2.66016,268.06 2.66406,273.807 2.66797,279.45 2.67188,284.986 2.67578,290.413 2.67969,295.73 2.68359,300.934 2.6875,306.023 2.69141,310.995 2.69531,315.849 2.69922,320.582 2.70312,325.193 2.70703,329.679 2.71094,334.041 2.71484,338.274 2.71875,342.379 2.72266,346.353 2.72656,350.195 2.73047,353.903 2.73438,357.476 2.73828,360.913 2.74219,364.212 2.74609,367.373 2.75,370.393 2.75391,373.272 2.75781,376.008 2.76172,378.601 2.76562,381.05 2.76953,383.353 2.77344,385.511 2.77734,387.521 2.78125,389.383 2.78516,391.096 2.78906,392.661 2.79297,394.076 2.79688,395.34 2.80078,396.454 2.80469,397.416 2.80859,398.227 2.8125,398.885 2.81641,399.392 2.82031,399.746 2.82422,399.948 2.82812,399.998 2.83203,399.894 2.83594,399.638 2.83984,399.23 2.84375,398.67 2.84766,397.957 2.85156,397.092 2.85547,396.077 2.85938,394.91 2.86328,393.592 2.86719,392.124 2.87109,390.507 2.875,388.74 2.87891,386.826 2.88281,384.763 2.88672,382.555 2.89062,380.2 2.89453,377.7 2.89844,375.056 2.90234,372.269 2.90625,369.34 2.91016,366.27 2.91406,363.06 2.91797,359.712 2.92188,356.226 2.92578,352.605 2.92969,348.849 2.93359,344.961 2.9375,340.94 2.94141,336.79 2.94531,332.511 2.94922,328.105 2.95312,323.574 2.95703,318.92 2.96094,314.144 2.96484,309.248 2.96875,304.234 2.97266,299.104 2.97656,293.86 2.98047,288.504 2.98438,283.038 2.98828,277.464 2.99219,271.784 2.99609,266 3,260.115 3.00391,254.131 3.00781,248.05 3.01172,241.874 3.01562,235.606 3.01953,229.248 3.02344,222.802 3.02734,216.272 3.03125,209.659 3.03516,202.966 3.03906,196.196 3.04297,189.35 3.04688,182.433 3.05078,175.446 3.05469,168.392 3.05859,161.274 3.0625,154.094 3.06641,146.856 3.07031,139.561 3.07422,132.214 3.07812,124.816 3.08203,117.37 3.08594,109.879 3.08984,102.347 3.09375,94.7753 3.09766,87.1677 3.10156,79.5268 3.10547,71.8556 3.10938,64.157 3.11328,56.4339 3.11719,48.6893 3.12109,40.9261 3.125,33.1473 3.12891,25.3558 3.13281,17.5547 3.13672,9.74684 3.14062,1.9353 3.14453,5.87698 3.14844,13.687 3.15234,21.4918 3.15625,29.2885 3.16016,37.0739 3.16406,44.8452 3.16797,52.5994 3.17188,60.3335 3.17578,68.0447 3.17969,75.7298 3.18359,83.3861 3.1875,91.0106 3.19141,98.6003 3.19531,106.152 3.19922,113.664 3.20312,121.132 3.20703,128.554 3.21094,135.928 3.21484,143.249 3.21875,150.515 3.22266,157.724 3.22656,164.873 3.23047,171.959 3.23438,178.98 3.23828,185.932 3.24219,192.813 3.24609,199.621 3.25,206.353 3.25391,213.006 3.25781,219.577 3.26172,226.065 3.26562,232.467 3.26953,238.78 3.27344,245.002 3.27734,251.13 3.28125,257.163 3.28516,263.097 3.28906,268.931 3.29297,274.663 3.29688,280.29 3.30078,285.809 3.30469,291.22 3.30859,296.52 3.3125,301.707 3.31641,306.778 3.32031,311.733 3.32422,316.568 3.32812,321.283 3.33203,325.876 3.33594,330.344 3.33984,334.686 3.34375,338.9 3.34766,342.985 3.35156,346.939 3.35547,350.761 3.35938,354.449 3.36328,358.002 3.36719,361.418 3.37109,364.697 3.375,367.836 3.37891,370.835 3.38281,373.693 3.38672,376.408 3.39062,378.979 3.39453,381.406 3.39844,383.687 3.40234,385.822 3.40625,387.81 3.41016,389.65 3.41406,391.341 3.41797,392.883 3.42188,394.275 3.42578,395.517 3.42969,396.608 3.43359,397.548 3.4375,398.335 3.44141,398.971 3.44531,399.455 3.44922,399.787 3.45312,399.965 3.45703,399.992 3.46094,399.866 3.46484,399.587 3.46875,399.156 3.47266,398.572 3.47656,397.837 3.48047,396.949 3.48438,395.911 3.48828,394.721 3.49219,393.381 3.49609,391.89 3.5,390.25 3.50391,388.462 3.50781,386.525 3.51172,384.441 3.51562,382.21 3.51953,379.833 3.52344,377.311 3.52734,374.646 3.53125,371.837 3.53516,368.887 3.53906,365.796 3.54297,362.565 3.54688,359.196 3.55078,355.69 3.55469,352.049 3.55859,348.273 3.5625,344.364 3.56641,340.324 3.57031,336.154 3.57422,331.856 3.57812,327.431 3.58203,322.882 3.58594,318.209 3.58984,313.415 3.59375,308.501 3.59766,303.469 3.60156,298.322 3.60547,293.061 3.60938,287.689 3.61328,282.206 3.61719,276.616 3.62109,270.92 3.625,265.121 3.62891,259.221 3.63281,253.222 3.63672,247.126 3.64062,240.937 3.64453,234.655 3.64844,228.283 3.65234,221.825 3.65625,215.282 3.66016,208.657 3.66406,201.952 3.66797,195.17 3.67188,188.314 3.67578,181.386 3.67969,174.389 3.68359,167.325 3.6875,160.198 3.69141,153.009 3.69531,145.762 3.69922,138.459 3.70312,131.104 3.70703,123.698 3.71094,116.246 3.71484,108.749 3.71875,101.21 3.72266,93.633 3.72656,86.0202 3.73047,78.3745 3.73438,70.699 3.73828,62.9965 3.74219,55.27 3.74609,47.5224 3.75,39.7566 3.75391,31.9757 3.75781,24.1826 3.76172,16.3803 3.76562,8.57171 3.76953,0.759868 3.77344,7.05227 3.77734,14.8617 3.78125,22.6655 3.78516,30.4606 3.78906,38.2441 3.79297,46.013 3.79688,53.7644 3.80078,61.4953 3.80469,69.2027 3.80859,76.8837 3.8125,84.5354 3.81641,92.1548 3.82031,99.7391 3.82422,107.285 3.82812,114.791 3.83203,122.252 3.83594,129.667 3.83984,137.032 3.84375,144.346 3.84766,151.604 3.85156,158.804 3.85547,165.944 3.85938,173.02 3.86328,180.03 3.86719,186.972 3.87109,193.842 3.875,200.639 3.87891,207.359 3.88281,214 3.88672,220.559 3.89062,227.034 3.89453,233.422 3.89844,239.722 3.90234,245.93 3.90234,0" style="fill:rgb(255,0,0);fill-opacity:1;stroke:rgb(255,0,0);stroke-opacity:1;stroke-width:0.00975586"/>
	<polygon points="0,0 0,400 0.00390625,399.997 0.0078125,399.988 0.0117188,399.973 0.015625,399.951 0.0195312,399.924 0.0234375,399.89 0.0273438,399.85 0.03125,399.805 0.0351562,399.753 0.0390625,399.695 0.0429688,399.631 0.046875,399.561 0.0507812,399.484 0.0546875,399.402 0.0585938,399.314 0.0625,399.219 0.0664062,399.118 0.0703125,399.012 0.0742188,398.899 0.078125,398.78 0.0820312,398.655 0.0859375,398.524 0.0898438,398.387 0.09375,398.243 0.0976562,398.094 0.101562,397.939 0.105469,397.777 0.109375,397.61 0.113281,397.436 0.117188,397.257 0.121094,397.071 0.125,396.879 0.128906,396.681 0.132812,396.477 0.136719,396.267 0.140625,396.051 0.144531,395.829 0.148438,395.601 0.152344,395.367 0.15625,395.127 0.160156,394.881 0.164062,394.629 0.167969,394.371 0.171875,394.106 0.175781,393.836 0.179688,393.56 0.183594,393.278 0.1875,392.989 0.191406,392.695 0.195312,392.395 0.199219,392.089 0.203125,391.776 0.207031,391.458 0.210938,391.134 0.214844,390.804 0.21875,390.468 0.222656,390.126 0.226562,389.778 0.230469,389.424 0.234375,389.064 0.238281,388.698 0.242188,388.326 0.246094,387.949 0.25,387.565 0.253906,387.175 0.257812,386.78 0.261719,386.379 0.265625,385.971 0.269531,385.558 0.273438,385.139 0.277344,384.714 0.28125,384.284 0.285156,383.847 0.289062,383.405 0.292969,382.956 0.296875,382.502 0.300781,382.042 0.304688,381.576 0.308594,381.105 0.3125,380.627 0.316406,380.144 0.320312,379.655 0.324219,379.16 0.328125,378.659 0.332031,378.153 0.335938,377.641 0.339844,377.123 0.34375,376.599 0.347656,376.07 0.351562,375.534 0.355469,374.993 0.359375,374.447 0.363281,373.894 0.367188,373.336 0.371094,372.773 0.375,372.203 0.378906,371.628 0.382812,371.047 0.386719,370.461 0.390625,369.869 0.394531,369.271 0.398438,368.667 0.402344,368.058 0.40625,367.444 0.410156,366.823 0.414062,366.198 0.417969,365.566 0.421875,364.929 0.425781,364.287 0.429688,363.638 0.433594,362.985 0.4375,362.325 0.441406,361.661 0.445312,360.99 0.449219,360.315 0.453125,359.633 0.457031,358.947 0.460938,358.254 0.464844,357.557 0.46875,356.853 0.472656,356.145 0.476562,355.431 0.480469,354.711 0.484375,353.986 0.488281,353.256 0.492188,352.521 0.496094,351.779 0.5,351.033 0.503906,350.281 0.507812,349.524 0.511719,348.762 0.515625,347.994 0.519531,347.221 0.523438,346.442 0.527344,345.659 0.53125,344.87 0.535156,344.076 0.539062,343.276 0.542969,342.471 0.546875,341.662 0.550781,340.846 0.554688,340.026 0.558594,339.201 0.5625,338.37 0.566406,337.534 0.570312,336.693 0.574219,335.847 0.578125,334.995 0.582031,334.139 0.585938,333.278 0.589844,332.411 0.59375,331.539 0.597656,330.663 0.601562,329.781 0.605469,328.894 0.609375,328.002 0.613281,327.106 0.617188,326.204 0.621094,325.297 0.625,324.385 0.628906,323.469 0.632812,322.547 0.636719,321.62 0.640625,320.689 0.644531,319.753 0.648438,318.811 0.652344,317.865 0.65625,316.914 0.660156,315.959 0.664062,314.998 0.667969,314.033 0.671875,313.062 0.675781,312.087 0.679688,311.108 0.683594,310.123 0.6875,309.134 0.691406,308.14 0.695312,307.141 0.699219,306.138 0.703125,305.13 0.707031,304.117 0.710938,303.1 0.714844,302.078 0.71875,301.052 0.722656,300.021 0.726562,298.985 0.730469,297.945 0.734375,296.9 0.738281,295.851 0.742188,294.797 0.746094,293.738 0.75,292.676 0.753906,291.608 0.757812,290.537 0.761719,289.46 0.765625,288.38 0.769531,287.295 0.773438,286.205 0.777344,285.112 0.78125,284.014 0.785156,282.911 0.789062,281.804 0.792969,280.693 0.796875,279.578 0.800781,278.458 0.804688,277.335 0.808594,276.207 0.8125,275.074 0.816406,273.938 0.820312,272.797 0.824219,271.652 0.828125,270.503 0.832031,269.35 0.835938,268.193 0.839844,267.032 0.84375,265.866 0.847656,264.697 0.851562,263.523 0.855469,262.346 0.859375,261.164 0.863281,259.979 0.867188,258.789 0.871094,257.596 0.875,256.399 0.878906,255.198 0.882812,253.992 0.886719,252.783 0.890625,251.57 0.894531,250.354 0.898438,249.133 0.902344,247.909 0.90625,246.681 0.910156,245.449 0.914062,244.213 0.917969,242.974 0.921875,241.731 0.925781,240.484 0.929688,239.234 0.933594,237.98 0.9375,236.722 0.941406,235.461 0.945312,234.196 0.949219,232.927 0.953125,231.655 0.957031,230.38 0.960938,229.101 0.964844,227.818 0.96875,226.532 0.972656,225.243 0.976562,223.95 0.980469,222.653 0.984375,221.354 0.988281,220.05 0.992188,218.744 0.996094,217.434 1,216.121 1.00391,214.804 1.00781,213.485 1.01172,212.162 1.01562,210.836 1.01953,209.506 1.02344,208.173 1.02734,206.838 1.03125,205.499 1.03516,204.157 1.03906,202.811 1.04297,201.463 1.04688,200.112 1.05078,198.757 1.05469,197.4 1.05859,196.039 1.0625,194.676 1.06641,193.309 1.07031,191.94 1.07422,190.568 1.07812,189.192 1.08203,187.814 1.08594,186.433 1.08984,185.05 1.09375,183.663 1.09766,182.273 1.10156,180.881 1.10547,179.486 1.10938,178.088 1.11328,176.688 1.11719,175.285 1.12109,173.879 1.125,172.471 1.12891,171.06 1.13281,169.646 1.13672,168.229 1.14062,166.811 1.14453,165.389 1.14844,163.965 1.15234,162.539 1.15625,161.11 1.16016,159.679 1.16406,158.245 1.16797,156.808 1.17188,155.37 1.17578,153.929 1.17969,152.485 1.18359,151.04 1.1875,149.592 1.19141,148.142 1.19531,146.689 1.19922,145.234 1.20312,143.777 1.20703,142.318 1.21094,140.857 1.21484,139.393 1.21875,137.928 1.22266,136.46 1.22656,134.99 1.23047,133.518 1.23438,132.044 1.23828,130.569 1.24219,129.091 1.24609,127.611 1.25,126.129 1.25391,124.645 1.25781,123.16 1.26172,121.672 1.26562,120.183 1.26953,118.691 1.27344,117.198 1.27734,115.704 1.28125,114.207 1.28516,112.709 1.28906,111.209 1.29297,109.707 1.29688,108.203 1.30078,106.698 1.30469,105.192 1.30859,103.683 1.3125,102.174 1.31641,100.662 1.32031,99.1491 1.32422,97.6346 1.32812,96.1186 1.33203,94.6012 1.33594,93.0823 1.33984,91.562 1.34375,90.0403 1.34766,88.5172 1.35156,86.9927 1.35547,85.467 1.35938,83.9399 1.36328,82.4116 1.36719,80.882 1.37109,79.3511 1.375,77.8191 1.37891,76.2858 1.38281,74.7514 1.38672,73.2159 1.39062,71.6793 1.39453,70.1415 1.39844,68.6027 1.40234,67.0628 1.40625,65.5219 1.41016,63.98 1.41406,62.4372 1.41797,60.8933 1.42188,59.3486 1.42578,57.8029 1.42969,56.2564 1.43359,54.709 1.4375,53.1608 1.44141,51.6117 1.44531,50.0619 1.44922,48.5113 1.45312,46.96 1.45703,45.4079 1.46094,43.8552 1.46484,42.3018 1.46875,40.7477 1.47266,39.193 1.47656,37.6378 1.48047,36.0819 1.48438,34.5255 1.48828,32.9686 1.49219,31.4112 1.49609,29.8532 1.5,28.2949 1.50391,26.7361 1.50781,25.1769 1.51172,23.6173 1.51562,22.0573 1.51953,20.497 1.52344,18.9365 1.52734,17.3756 1.53125,15.8144 1.53516,14.253 1.53906,12.6914 1.54297,11.1296 1.54688,9.56762 1.55078,8.0055 1.55469,6.44325 1.55859,4.88091 1.5625,3.31849 1.56641,1.75603 1.57031,0.193531 1.57422,1.36897 1.57812,2.93144 1.58203,4.49387 1.58594,6.05624 1.58984,7.61851 1.59375,9.18066 1.59766,10.7427 1.60156,12.3045 1.60547,13.8662 1.60938,15.4276 1.61328,16.9889 1.61719,18.5498 1.62109,20.1105 1.625,21.6709 1.62891,23.2309 1.63281,24.7906 1.63672,26.3499 1.64062,27.9088 1.64453,29.4673 1.64844,31.0253 1.65234,32.5828 1.65625,34.1399 1.66016,35.6964 1.66406,37.2524 1.66797,38.8078 1.67188,40.3627 1.67578,41.9169 1.67969,43.4704 1.68359,45.0234 1.6875,46.5756 1.69141,48.1271 1.69531,49.6779 1.69922,51.2279 1.70312,52.7771 1.70703,54.3256 1.71094,55.8732 1.71484,57.4199 1.71875,58.9658 1.72266,60.5108 1.72656,62.0548 1.73047,63.5979 1.73438,65.1401 1.73828,66.6812 1.74219,68.2213 1.74609,69.7604 1.75,71.2984 1.75391,72.8354 1.75781,74.3712 1.76172,75.9059 1.76562,77.4394 1.76953,78.9717 1.77344,80.5029 1.77734,82.0328 1.78125,83.5614 1.78516,85.0888 1.78906,86.6149 1.79297,88.1397 1.79688,89.6631 1.80078,91.1851 1.80469,92.7058 1.80859,94.225 1.8125,95.7428 1.81641,97.2592 1.82031,98.7741 1.82422,100.287 1.82812,101.799 1.83203,103.31 1.83594,104.818 1.83984,106.325 1.84375,107.831 1.84766,109.335 1.85156,110.837 1.85547,112.337 1.85938,113.836 1.86328,115.333 1.86719,116.828 1.87109,118.322 1.875,119.813 1.87891,121.303 1.88281,122.791 1.88672,124.277 1.89062,125.762 1.89453,127.244 1.89844,128.724 1.90234,130.203 1.90625,131.679 1.91016,133.153 1.91406,134.626 1.91797,136.096 1.92188,137.564 1.92578,139.03 1.92969,140.495 1.93359,141.956 1.9375,143.416 1.94141,144.874 1.94531,146.329 1.94922,147.782 1.95312,149.233 1.95703,150.681 1.96094,152.128 1.96484,153.572 1.96875,155.013 1.97266,156.452 1.97656,157.889 1.98047,159.324 1.98438,160.756 1.98828,162.185 1.99219,163.612 1.99609,165.037 2,166.459 2.00391,167.878 2.00781,169.295 2.01172,170.71 2.01562,172.121 2.01953,173.53 2.02344,174.937 2.02734,176.341 2.03125,177.742 2.03516,179.14 2.03906,180.536 2.04297,181.929 2.04688,183.319 2.05078,184.706 2.05469,186.091 2.05859,187.473 2.0625,188.851 2.06641,190.227 2.07031,191.6 2.07422,192.97 2.07812,194.338 2.08203,195.702 2.08594,197.063 2.08984,198.421 2.09375,199.776 2.09766,201.129 2.10156,202.478 2.10547,203.824 2.10938,205.167 2.11328,206.506 2.11719,207.843 2.12109,209.176 2.125,210.507 2.12891,211.834 2.13281,213.157 2.13672,214.478 2.14062,215.795 2.14453,217.109 2.14844,218.42 2.15234,219.727 2.15625,221.031 2.16016,222.332 2.16406,223.629 2.16797,224.923 2.17188,226.213 2.17578,227.5 2.17969,228.783 2.18359,230.063 2.1875,231.34 2.19141,232.613 2.19531,233.882 2.19922,235.148 2.20312,236.41 2.20703,237.669 2.21094,238.923 2.21484,240.175 2.21875,241.422 2.22266,242.666 2.22656,243.907 2.23047,245.143 2.23438,246.376 2.23828,247.605 2.24219,248.83 2.24609,250.052 2.25,251.269 2.25391,252.483 2.25781,253.693 2.26172,254.899 2.26562,256.102 2.26953,257.3 2.27344,258.494 2.27734,259.685 2.28125,260.871 2.28516,262.054 2.28906,263.232 2.29297,264.407 2.29688,265.577 2.30078,266.743 2.30469,267.906 2.30859,269.064 2.3125,270.218 2.31641,271.368 2.32031,272.514 2.32422,273.656 2.32812,274.793 2.33203,275.926 2.33594,277.056 2.33984,278.18 2.34375,279.301 2.34766,280.417 2.35156,281.53 2.35547,282.637 2.35938,283.741 2.36328,284.84 2.36719,285.935 2.37109,287.025 2.375,288.111 2.37891,289.193 2.38281,290.27 2.38672,291.343 2.39062,292.412 2.39453,293.476 2.39844,294.535 2.40234,295.59 2.40625,296.64 2.41016,297.686 2.41406,298.728 2.41797,299.765 2.42188,300.797 2.42578,301.824 2.42969,302.847 2.43359,303.866 2.4375,304.88 2.44141,305.889 2.44531,306.893 2.44922,307.893 2.45312,308.888 2.45703,309.879 2.46094,310.864 2.46484,311.845 2.46875,312.821 2.47266,313.793 2.47656,314.759 2.48047,315.721 2.48438,316.678 2.48828,317.63 2.49219,318.577 2.49609,319.52 2.5,320.457 2.50391,321.39 2.50781,322.318 2.51172,323.241 2.51562,324.159 2.51953,325.072 2.52344,325.98 2.52734,326.883 2.53125,327.781 2.53516,328.674 2.53906,329.562 2.54297,330.445 2.54688,331.323 2.55078,332.196 2.55469,333.063 2.55859,333.926 2.5625,334.784 2.56641,335.636 2.57031,336.484 2.57422,337.326 2.57812,338.163 2.58203,338.995 2.58594,339.822 2.58984,340.644 2.59375,341.46 2.59766,342.271 2.60156,343.077 2.60547,343.878 2.60938,344.674 2.61328,345.464 2.61719,346.249 2.62109,347.028 2.625,347.803 2.62891,348.572 2.63281,349.336 2.63672,350.094 2.64062,350.847 2.64453,351.595 2.64844,352.337 2.65234,353.074 2.65625,353.806 2.66016,354.532 2.66406,355.253 2.66797,355.968 2.67188,356.678 2.67578,357.383 2.67969,358.082 2.68359,358.776 2.6875,359.464 2.69141,360.146 2.69531,360.824 2.69922,361.495 2.70312,362.161 2.70703,362.822 2.71094,363.477 2.71484,364.126 2.71875,364.77 2.72266,365.409 2.72656,366.042 2.73047,366.669 2.73438,367.291 2.73828,367.907 2.74219,368.517 2.74609,369.122 2.75,369.721 2.75391,370.314 2.75781,370.902 2.76172,371.485 2.76562,372.061 2.76953,372.632 2.77344,373.197 2.77734,373.757 2.78125,374.31 2.78516,374.858 2.78906,375.401 2.79297,375.937 2.79688,376.468 2.80078,376.994 2.80469,377.513 2.80859,378.027 2.8125,378.534 2.81641,379.036 2.82031,379.533 2.82422,380.023 2.82812,380.508 2.83203,380.987 2.83594,381.46 2.83984,381.927 2.84375,382.389 2.84766,382.844 2.85156,383.294 2.85547,383.738 2.85938,384.176 2.86328,384.608 2.86719,385.035 2.87109,385.455 2.875,385.87 2.87891,386.278 2.88281,386.681 2.88672,387.078 2.89062,387.469 2.89453,387.854 2.89844,388.233 2.90234,388.606 2.90625,388.974 2.91016,389.335 2.91406,389.691 2.91797,390.04 2.92188,390.384 2.92578,390.721 2.92969,391.053 2.93359,391.378 2.9375,391.698 2.94141,392.012 2.94531,392.32 2.94922,392.621 2.95312,392.917 2.95703,393.207 2.96094,393.49 2.96484,393.768 2.96875,394.04 2.97266,394.306 2.97656,394.565 2.98047,394.819 2.98438,395.067 2.98828,395.308 2.99219,395.544 2.99609,395.773 3,395.997 3.00391,396.214 3.00781,396.426 3.01172,396.631 3.01562,396.831 3.01953,397.024 3.02344,397.211 3.02734,397.392 3.03125,397.567 3.03516,397.736 3.03906,397.899 3.04297,398.056 3.04688,398.207 3.05078,398.352 3.05469,398.49 3.05859,398.623 3.0625,398.75 3.06641,398.87 3.07031,398.984 3.07422,399.092 3.07812,399.195 3.08203,399.291 3.08594,399.381 3.08984,399.465 3.09375,399.542 3.09766,399.614 3.10156,399.68 3.10547,399.739 3.10938,399.792 3.11328,399.84 3.11719,399.881 3.12109,399.916 3.125,399.945 3.12891,399.968 3.13281,399.985 3.13672,399.995 3.14062,400 3.14453,399.998 3.14844,399.991 3.15234,399.977 3.15625,399.957 3.16016,399.931 3.16406,399.899 3.16797,399.861 3.17188,399.817 3.17578,399.766 3.17969,399.71 3.18359,399.647 3.1875,399.579 3.19141,399.504 3.19531,399.423 3.19922,399.336 3.20312,399.243 3.20703,399.144 3.21094,399.039 3.21484,398.927 3.21875,398.81 3.22266,398.686 3.22656,398.557 3.23047,398.421 3.23438,398.28 3.23828,398.132 3.24219,397.978 3.24609,397.818 3.25,397.652 3.25391,397.48 3.25781,397.302 3.26172,397.117 3.26562,396.927 3.26953,396.731 3.27344,396.528 3.27734,396.32 3.28125,396.106 3.28516,395.885 3.28906,395.658 3.29297,395.426 3.29688,395.187 3.30078,394.942 3.30469,394.692 3.30859,394.435 3.3125,394.172 3.31641,393.904 3.32031,393.629 3.32422,393.348 3.32812,393.061 3.33203,392.769 3.33594,392.47 3.33984,392.165 3.34375,391.854 3.34766,391.538 3.35156,391.215 3.35547,390.886 3.35938,390.552 3.36328,390.211 3.36719,389.864 3.37109,389.512 3.375,389.154 3.37891,388.789 3.38281,388.419 3.38672,388.043 3.39062,387.661 3.39453,387.272 3.39844,386.879 3.40234,386.479 3.40625,386.073 3.41016,385.661 3.41406,385.244 3.41797,384.82 3.42188,384.391 3.42578,383.956 3.42969,383.515 3.43359,383.068 3.4375,382.615 3.44141,382.157 3.44531,381.692 3.44922,381.222 3.45312,380.746 3.45703,380.264 3.46094,379.777 3.46484,379.283 3.46875,378.784 3.47266,378.279 3.47656,377.768 3.48047,377.252 3.48438,376.729 3.48828,376.201 3.49219,375.667 3.49609,375.128 3.5,374.583 3.50391,374.032 3.50781,373.475 3.51172,372.913 3.51562,372.345 3.51953,371.771 3.52344,371.192 3.52734,370.606 3.53125,370.016 3.53516,369.419 3.53906,368.817 3.54297,368.21 3.54688,367.596 3.55078,366.978 3.55469,366.353 3.55859,365.723 3.5625,365.087 3.56641,364.446 3.57031,363.799 3.57422,363.147 3.57812,362.489 3.58203,361.826 3.58594,361.157 3.58984,360.483 3.59375,359.803 3.59766,359.117 3.60156,358.426 3.60547,357.73 3.60938,357.028 3.61328,356.321 3.61719,355.608 3.62109,354.89 3.625,354.167 3.62891,353.438 3.63281,352.703 3.63672,351.964 3.64062,351.218 3.64453,350.468 3.64844,349.712 3.65234,348.951 3.65625,348.185 3.66016,347.413 3.66406,346.636 3.66797,345.853 3.67188,345.066 3.67578,344.273 3.67969,343.475 3.68359,342.671 3.6875,341.863 3.69141,341.049 3.69531,340.23 3.69922,339.405 3.70312,338.576 3.70703,337.741 3.71094,336.902 3.71484,336.057 3.71875,335.207 3.72266,334.352 3.72656,333.491 3.73047,332.626 3.73438,331.756 3.73828,330.88 3.74219,330 3.74609,329.114 3.75,328.224 3.75391,327.328 3.75781,326.428 3.76172,325.522 3.76562,324.612 3.76953,323.696 3.77344,322.776 3.77734,321.85 3.78125,320.92 3.78516,319.985 3.78906,319.045 3.79297,318.1 3.79688,317.15 3.80078,316.196 3.80469,315.236 3.80859,314.272 3.8125,313.303 3.81641,312.329 3.82031,311.351 3.82422,310.368 3.82812,309.379 3.83203,308.387 3.83594,307.389 3.83984,306.387 3.84375,305.38 3.84766,304.369 3.85156,303.353 3.85547,302.332 3.85938,301.306 3.86328,300.276 3.86719,299.242 3.87109,298.203 3.875,297.159 3.87891,296.111 3.88281,295.058 3.88672,294.001 3.89062,292.939 3.89453,291.873 3.89844,290.802 3.90234,289.727 3.90234,0" style="fill:rgb(0,255,255);fill-opacity:1;stroke:rgb(0,255,255);stroke-opacity:1;stroke-width:0.00975586"/>
</svg>
