<?xml version="1.0" encoding="utf-8"?>
<svg height="370" style="fill:rgb(255,255,255);fill-opacity:0;stroke:rgb(0,0,0);stroke-opacity:1;stroke-width:2" transform="matrix(1 0 0 -1 0 0) matrix(1 0 0 1 0 -370)" width="340">
	<rect height="370" rx="0" ry="0" style="fill:rgb(255,255,255);fill-opacity:1;stroke:rgb(0,0,0);stroke-opacity:1;stroke-width:0" width="340" x="0" y="0"/>
	<line style="fill:rgb(255,255,255);fill-opacity:0;stroke:rgb(200,200,200);stroke-opacity:1;stroke-width:2" x1="65" x2="195" y1="305" y2="225"/>
	<line style="fill:rgb(255,255,255);fill-opacity:0;stroke:rgb(200,200,200);stroke-opacity:1;stroke-width:2" x1="65" x2="115" y1="305" y2="225"/>
	<line style="fill:rgb(255,255,255);fill-opacity:0;stroke:rgb(200,200,200);stroke-opacity:1;stroke-width:2" x1="65" x2="65" y1="305" y2="225"/>
	<line style="fill:rgb(255,255,255);fill-opacity:0;stroke:rgb(200,200,200);stroke-opacity:1;stroke-width:2" x1="65" x2="65" y1="225" y2="65"/>
	<line style="fill:rgb(255,255,255);fill-opacity:0;stroke:rgb(200,200,200);stroke-opacity:1;stroke-width:2" x1="145" x2="195" y1="305" y2="225"/>
	<line style="fill:rgb(255,255,255);fill-opacity:0;stroke:rgb(200,200,200);stroke-opacity:1;stroke-width:2" x1="145" x2="275" y1="305" y2="225"/>
	<line style="fill:rgb(255,255,255);fill-opacity:0;stroke:rgb(200,200,200);stroke-opacity:1;stroke-width:2" x1="195" x2="115" y1="225" y2="145"/>
	<line style="fill:rgb(255,255,255);fill-opacity:0;stroke:rgb(200,200,200);stroke-opacity:1;stroke-width:2" x1="195" x2="195" y1="225" y2="145"/>
	<line style="fill:rgb(255,255,255);fill-opacity:0;stroke:rgb(200,200,200);stroke-opacity:1;stroke-width:2" x1="115" x2="115" y1="225" y2="145"/>
	<line style="fill:rgb(255,255,255);fill-opacity:0;stroke:rgb(200,200,200);stroke-opacity:1;stroke-width:2" x1="115" x2="195" y1="225" y2="145"/>
	<line style="fill:rgb(255,255,255);fill-opacity:0;stroke:rgb(200,200,200);stroke-opacity:1;stroke-width:2" x1="275" x2="195" y1="225" y2="145"/>
	<line style="fill:rgb(255,255,255);fill-opacity:0;stroke:rgb(200,200,200);stroke-opacity:1;stroke-width:2" x1="115" x2="145" y1="145" y2="65"/>
	<line style="fill:rgb(255,255,255);fill-opacity:0;stroke:rgb(200,200,200);stroke-opacity:1;stroke-width:2" x1="195" x2="145" y1="145" y2="65"/>
	<circle cx="65" cy="305" r="15" style="fill:rgb(43,172,43);fill-opacity:1;stroke:rgb(0,0,0);stroke-opacity:1;stroke-width:1"/>
	<circle cx="145" cy="305" r="15" style="fill:rgb(43,172,43);fill-opacity:1;stroke:rgb(0,0,0);stroke-opacity:1;stroke-width:1"/>
	<circle cx="195" cy="225" r="15" style="fill:rgb(43,172,43);fill-opacity:1;stroke:rgb(0,0,0);stroke-opacity:1;stroke-width:1"/>
	<circle cx="115" cy="225" r="15" style="fill:rgb(43,172,43);fill-opacity:1;stroke:rgb(0,0,0);stroke-opacity:1;stroke-width:1"/>
	<circle cx="275" cy="225" r="15" style="fill:rgb(43,172,43);fill-opacity:1;stroke:rgb(0,0,0);stroke-opacity:1;stroke-width:1"/>
	<circle cx="115" cy="145" r="15" style="fill:rgb(43,172,43);fill-opacity:1;stroke:rgb(0,0,0);stroke-opacity:1;stroke-width:1"/>
	<circle cx="195" cy="145" r="15" style="fill:rgb(43,172,43);fill-opacity:1;stroke:rgb(0,0,0);stroke-opacity:1;stroke-width:1"/>
	<circle cx="145" cy="65" r="15" style="fill:rgb(43,172,43);fill-opacity:1;stroke:rgb(0,0,0);stroke-opacity:1;stroke-width:1"/>
	<circle cx="65" cy="65" r="15" style="fill:rgb(43,172,43);fill-opacity:1;stroke:rgb(0,0,0);stroke-opacity:1;stroke-width:1"/>
</svg>

