<?xml version="1.0" encoding="utf-8"?>
<svg style="fill:rgb(255,255,255);fill-opacity:0;stroke:rgb(0,0,0);stroke-opacity:1;stroke-width:2">
	<rect height="400" rx="0" ry="0" style="fill:rgb(255,255,255);fill-opacity:1;stroke:rgb(0,0,0);stroke-opacity:1;stroke-width:0" width="650" x="0" y="0"/>
	<line style="fill:rgb(255,255,255);fill-opacity:0;stroke:rgb(0,0,0);stroke-opacity:1;stroke-width:1" x1="10" x2="640" y1="390" y2="390"/>
	<line style="fill:rgb(255,255,255);fill-opacity:0;stroke:rgb(0,0,0);stroke-opacity:1;stroke-width:1" x1="10" x2="10" y1="390" y2="10"/>
	<line stroke-dasharray="1, 1" style="fill:rgb(255,255,255);fill-opacity:0;stroke:rgb(66,66,66);stroke-opacity:1;stroke-width:1" x1="10" x2="640" y1="10" y2="10"/>
	<line stroke-dasharray="1, 1" style="fill:rgb(255,255,255);fill-opacity:0;stroke:rgb(66,66,66);stroke-opacity:1;stroke-width:1" x1="10" x2="640" y1="48" y2="48"/>
	<line stroke-dasharray="1, 1" style="fill:rgb(255,255,255);fill-opacity:0;stroke:rgb(66,66,66);stroke-opacity:1;stroke-width:1" x1="10" x2="640" y1="86" y2="86"/>
	<line stroke-dasharray="1, 1" style="fill:rgb(255,255,255);fill-opacity:0;stroke:rgb(66,66,66);stroke-opacity:1;stroke-width:1" x1="10" x2="640" y1="124" y2="124"/>
	<line stroke-dasharray="1, 1" style="fill:rgb(255,255,255);fill-opacity:0;stroke:rgb(66,66,66);stroke-opacity:1;stroke-width:1" x1="10" x2="640" y1="162" y2="162"/>
	<line stroke-dasharray="1, 1" style="fill:rgb(255,255,255);fill-opacity:0;stroke:rgb(66,66,66);stroke-opacity:1;stroke-width:1" x1="10" x2="640" y1="200" y2="200"/>
	<line stroke-dasharray="1, 1" style="fill:rgb(255,255,255);fill-opacity:0;stroke:rgb(66,66,66);stroke-opacity:1;stroke-width:1" x1="10" x2="640" y1="238" y2="238"/>
	<line stroke-dasharray="1, 1" style="fill:rgb(255,255,255);fill-opacity:0;stroke:rgb(66,66,66);stroke-opacity:1;stroke-width:1" x1="10" x2="640" y1="276" y2="276"/>
	<line stroke-dasharray="1, 1" style="fill:rgb(255,255,255);fill-opacity:0;stroke:rgb(66,66,66);stroke-opacity:1;stroke-width:1" x1="10" x2="640" y1="314" y2="314"/>
	<line stroke-dasharray="1, 1" style="fill:rgb(255,255,255);fill-opacity:0;stroke:rgb(66,66,66);stroke-opacity:1;stroke-width:1" x1="10" x2="640" y1="352" y2="352"/>
	<line stroke-dasharray="1, 1" style="fill:rgb(255,255,255);fill-opacity:0;stroke:rgb(66,66,66);stroke-opacity:1;stroke-width:1" x1="10" x2="640" y1="390" y2="390"/>
	<line stroke-dasharray="1, 1" style="fill:rgb(255,255,255);fill-opacity:0;stroke:rgb(66,66,66);stroke-opacity:1;stroke-width:1" x1="10" x2="10" y1="10" y2="390"/>
	<line stroke-dasharray="1, 1" style="fill:rgb(255,255,255);fill-opacity:0;stroke:rgb(66,66,66);stroke-opacity:1;stroke-width:1" x1="73" x2="73" y1="10" y2="390"/>
	<line stroke-dasharray="1, 1" style="fill:rgb(255,255,255);fill-opacity:0;stroke:rgb(66,66,66);stroke-opacity:1;stroke-width:1" x1="136" x2="136" y1="10" y2="390"/>
	<line stroke-dasharray="1, 1" style="fill:rgb(255,255,255);fill-opacity:0;stroke:rgb(66,66,66);stroke-opacity:1;stroke-width:1" x1="199" x2="199" y1="10" y2="390"/>
	<line stroke-dasharray="1, 1" style="fill:rgb(255,255,255);fill-opacity:0;stroke:rgb(66,66,66);stroke-opacity:1;stroke-width:1" x1="262" x2="262" y1="10" y2="390"/>
	<line stroke-dasharray="1, 1" style="fill:rgb(255,255,255);fill-opacity:0;stroke:rgb(66,66,66);stroke-opacity:1;stroke-width:1" x1="325" x2="325" y1="10" y2="390"/>
	<line stroke-dasharray="1, 1" style="fill:rgb(255,255,255);fill-opacity:0;stroke:rgb(66,66,66);stroke-opacity:1;stroke-width:1" x1="388" x2="388" y1="10" y2="390"/>
	<line stroke-dasharray="1, 1" style="fill:rgb(255,255,255);fill-opacity:0;stroke:rgb(66,66,66);stroke-opacity:1;stroke-width:1" x1="451" x2="451" y1="10" y2="390"/>
	<line stroke-dasharray="1, 1" style="fill:rgb(255,255,255);fill-opacity:0;stroke:rgb(66,66,66);stroke-opacity:1;stroke-width:1" x1="514" x2="514" y1="10" y2="390"/>
	<line stroke-dasharray="1, 1" style="fill:rgb(255,255,255);fill-opacity:0;stroke:rgb(66,66,66);stroke-opacity:1;stroke-width:1" x1="577" x2="577" y1="10" y2="390"/>
	<line stroke-dasharray="1, 1" style="fill:rgb(255,255,255);fill-opacity:0;stroke:rgb(66,66,66);stroke-opacity:1;stroke-width:1" x1="640" x2="640" y1="10" y2="390"/>
	<polyline points="10,126.913 13.15,136.576 16.3,146.75 19.45,157.333 22.6,168.22 25.75,179.301 28.9,190.466 32.05,201.603 35.2,212.602 38.35,223.352 41.5,233.745 44.65,243.678 47.8,253.052 50.95,261.773 54.1,269.754 57.25,276.915 60.4,283.185 63.55,288.5 66.7,292.808 69.85,296.066 73,298.242 76.15,299.312 79.3,299.268 82.45,298.109 85.6,295.846 88.75,292.503 91.9,288.113 95.05,282.72 98.2,276.377 101.35,269.148 104.5,261.105 107.65,252.329 110.8,242.907 113.95,232.933 117.1,222.507 120.25,211.734 123.4,200.72 126.55,189.576 129.7,178.414 132.85,167.344 136,156.478 139.15,145.923 142.3,135.786 145.45,126.168 148.6,117.165 151.75,108.866 154.9,101.355 158.05,94.7062 161.2,88.9869 164.35,84.2538 167.5,80.5544 170.65,77.9255 173.8,76.3934 176.95,75.9735 180.1,76.6698 183.25,78.4755 186.4,81.3725 189.55,85.3319 192.7,90.3141 195.85,96.2693 199,103.138 202.15,110.852 205.3,119.333 208.45,128.498 211.6,138.254 214.75,148.504 217.9,159.145 221.05,170.072 224.2,181.175 227.35,192.344 230.5,203.466 233.65,214.43 236.8,225.127 239.95,235.45 243.1,245.296 246.25,254.567 249.4,263.169 252.55,271.018 255.7,278.033 258.85,284.147 262,289.296 265.15,293.431 268.3,296.509 271.45,298.499 274.6,299.383 277.75,299.151 280.9,297.805 284.05,295.359 287.2,291.837 290.35,287.275 293.5,281.718 296.65,275.221 299.8,267.85 302.95,259.678 306.1,250.787 309.25,241.265 312.4,231.209 315.55,220.717 318.7,209.896 321.85,198.852 325,187.698 328.15,176.543 331.3,165.5 334.45,154.678 337.6,144.187 340.75,134.13 343.9,124.609 347.05,115.717 350.2,107.546 353.35,100.174 356.5,93.6778 359.65,88.1206 362.8,83.5584 365.95,80.0367 369.1,77.5907 372.25,76.2448 375.4,76.0125 378.55,76.8962 381.7,78.887 384.85,81.965 388,86.0994 391.15,91.2489 394.3,97.3622 397.45,104.378 400.6,112.226 403.75,120.829 406.9,130.099 410.05,139.945 413.2,150.269 416.35,160.966 419.5,171.93 422.65,183.052 425.8,194.22 428.95,205.323 432.1,216.25 435.25,226.892 438.4,237.142 441.55,246.898 444.7,256.062 447.85,264.544 451,272.258 454.15,279.126 457.3,285.081 460.45,290.064 463.6,294.023 466.75,296.92 469.9,298.726 473.05,299.422 476.2,299.002 479.35,297.47 482.5,294.841 485.65,291.142 488.8,286.409 491.95,280.689 495.1,274.041 498.25,266.53 501.4,258.231 504.55,249.227 507.7,239.609 510.85,229.472 514,218.918 517.15,208.051 520.3,196.982 523.45,185.819 526.6,174.675 529.75,163.662 532.9,152.888 536.05,142.463 539.2,132.489 542.35,123.067 545.5,114.291 548.65,106.248 551.8,99.019 554.95,92.6761 558.1,87.2825 561.25,82.8923 564.4,79.5493 567.55,77.2869 570.7,76.1277 573.85,76.0832 577,77.1539 580.15,79.3292 583.3,82.5873 586.45,86.8955 589.6,92.211 592.75,98.4805 595.9,105.641 599.05,113.622 602.2,122.343 605.35,131.717 608.5,141.651 611.65,152.044 614.8,162.794 617.95,173.792 621.1,184.93 624.25,196.095 627.4,207.176 630.55,218.062 633.7,228.646 636.85,238.82 640,248.483" style="fill:rgb(255,255,255);fill-opacity:0;stroke:rgb(255,0,0);stroke-opacity:1;stroke-width:1"/>
	<polyline points="10,375.47 13.15,380.461 16.3,384.451 19.45,387.392 22.6,389.25 25.75,390 28.9,389.627 32.05,388.129 35.2,385.515 38.35,381.803 41.5,377.024 44.65,371.22 47.8,364.44 50.95,356.747 54.1,348.209 57.25,338.905 60.4,328.921 63.55,318.348 66.7,307.286 69.85,295.836 73,284.107 76.15,272.208 79.3,260.249 82.45,248.342 85.6,236.599 88.75,225.129 91.9,214.038 95.05,203.429 98.2,193.4 101.35,184.043 104.5,175.442 107.65,167.677 110.8,160.814 113.95,154.916 117.1,150.031 120.25,146.2 123.4,143.453 126.55,141.808 129.7,141.272 132.85,141.843 136,143.504 139.15,146.232 142.3,149.988 145.45,154.728 148.6,160.393 151.75,166.917 154.9,174.228 158.05,182.241 161.2,190.867 164.35,200.011 167.5,209.571 170.65,219.443 173.8,229.517 176.95,239.684 180.1,249.833 183.25,259.851 186.4,269.628 189.55,279.058 192.7,288.036 195.85,296.462 199,304.242 202.15,311.288 205.3,317.519 208.45,322.863 211.6,327.256 214.75,330.644 217.9,332.982 221.05,334.238 224.2,334.388 227.35,333.419 230.5,331.332 233.65,328.136 236.8,323.853 239.95,318.515 243.1,312.165 246.25,304.855 249.4,296.648 252.55,287.615 255.7,277.836 258.85,267.398 262,256.393 265.15,244.922 268.3,233.087 271.45,220.997 274.6,208.761 277.75,196.491 280.9,184.298 284.05,172.294 287.2,160.586 290.35,149.282 293.5,138.483 296.65,128.286 299.8,118.782 302.95,110.055 306.1,102.181 309.25,95.2273 312.4,89.2531 315.55,84.3068 318.7,80.4266 321.85,77.6404 325,75.9649 328.15,75.4058 331.3,75.9576 334.45,77.6038 337.6,80.3169 340.75,84.0586 343.9,88.7807 347.05,94.4249 350.2,100.924 353.35,108.201 356.5,116.174 359.65,124.75 362.8,133.835 365.95,143.325 369.1,153.115 372.25,163.097 375.4,173.159 378.55,183.191 381.7,193.08 384.85,202.718 388,211.997 391.15,220.814 394.3,229.069 397.45,236.67 400.6,243.53 403.75,249.569 406.9,254.716 410.05,258.91 413.2,262.097 416.35,264.235 419.5,265.293 422.65,265.249 425.8,264.093 428.95,261.826 432.1,258.459 435.25,254.018 438.4,248.535 441.55,242.054 444.7,234.631 447.85,226.329 451,217.22 454.15,207.387 457.3,196.916 460.45,185.902 463.6,174.446 466.75,162.651 469.9,150.625 473.05,138.48 476.2,126.325 479.35,114.274 482.5,102.436 485.65,90.9198 488.8,79.8312 491.95,69.2712 495.1,59.3358 498.25,50.1147 501.4,41.6906 504.55,34.1383 507.7,27.5238 510.85,21.9041 514,17.3261 517.15,13.8262 520.3,11.4305 523.45,10.1539 526.6,10 529.75,10.9616 532.9,13.0202 536.05,16.1466 539.2,20.3006 542.35,25.4323 545.5,31.4818 548.65,38.3801 551.8,46.05 554.95,54.4064 558.1,63.3575 561.25,72.8058 564.4,82.6486 567.55,92.7797 570.7,103.09 573.85,113.468 577,123.803 580.15,133.983 583.3,143.9 586.45,153.446 589.6,162.518 592.75,171.02 595.9,178.857 599.05,185.946 602.2,192.207 605.35,197.571 608.5,201.978 611.65,205.376 614.8,207.725 617.95,208.995 621.1,209.166 624.25,208.229 627.4,206.189 630.55,203.059 633.7,198.863 636.85,193.638 640,187.43" style="fill:rgb(255,255,255);fill-opacity:0;stroke:rgb(0,255,0);stroke-opacity:1;stroke-width:1"/>
</svg>
