<?xml version="1.0" encoding="utf-8"?>
<svg height="400" preserveAspectRatio="none" style="fill:rgb(255,255,255);fill-opacity:0;stroke:rgb(0,0,0);stroke-opacity:1;stroke-width:2" viewBox="0 0 100 100" width="400">
	<rect height="100" rx="0" ry="0" style="fill:rgb(255,255,255);fill-opacity:1;stroke:rgb(0,0,0);stroke-opacity:1;stroke-width:0" width="100" x="0" y="0"/>
	<rect height="10" rx="0" ry="0" style="fill:rgb(127,147,127);fill-opacity:1;stroke:rgb(0,0,0);stroke-opacity:1;stroke-width:0" width="10" x="0" y="0"/>
	<rect height="10" rx="0" ry="0" style="fill:rgb(78,147,78);fill-opacity:1;stroke:rgb(0,0,0);stroke-opacity:1;stroke-width:0" width="10" x="0" y="10"/>
	<rect height="10" rx="0" ry="0" style="fill:rgb(114,147,114);fill-opacity:1;stroke:rgb(0,0,0);stroke-opacity:1;stroke-width:0" width="10" x="0" y="20"/>
	<rect height="10" rx="0" ry="0" style="fill:rgb(45,147,45);fill-opacity:1;stroke:rgb(0,0,0);stroke-opacity:1;stroke-width:0" width="10" x="0" y="30"/>
	<rect height="10" rx="0" ry="0" style="fill:rgb(7,147,7);fill-opacity:1;stroke:rgb(0,0,0);stroke-opacity:1;stroke-width:0" width="10" x="0" y="40"/>
	<rect height="10" rx="0" ry="0" style="fill:rgb(69,147,69);fill-opacity:1;stroke:rgb(0,0,0);stroke-opacity:1;stroke-width:0" width="10" x="0" y="50"/>
	<rect height="10" rx="0" ry="0" style="fill:rgb(141,147,141);fill-opacity:1;stroke:rgb(0,0,0);stroke-opacity:1;stroke-width:0" width="10" x="0" y="60"/>
	<rect height="10" rx="0" ry="0" style="fill:rgb(67,147,67);fill-opacity:1;stroke:rgb(0,0,0);stroke-opacity:1;stroke-width:0" width="10" x="0" y="70"/>
	<rect height="10" rx="0" ry="0" style="fill:rgb(145,147,145);fill-opacity:1;stroke:rgb(0,0,0);stroke-opacity:1;stroke-width:0" width="10" x="0" y="80"/>
	<rect height="10" rx="0" ry="0" style="fill:rgb(136,147,136);fill-opacity:1;stroke:rgb(0,0,0);stroke-opacity:1;stroke-width:0" width="10" x="0" y="90"/>
	<rect height="10" rx="0" ry="0" style="fill:rgb(44,147,44);fill-opacity:1;stroke:rgb(0,0,0);stroke-opacity:1;stroke-width:0" width="10" x="10" y="0"/>
	<rect height="10" rx="0" ry="0" style="fill:rgb(7,147,7);fill-opacity:1;stroke:rgb(0,0,0);stroke-opacity:1;stroke-width:0" width="10" x="10" y="10"/>
	<rect height="10" rx="0" ry="0" style="fill:rgb(68,147,68);fill-opacity:1;stroke:rgb(0,0,0);stroke-opacity:1;stroke-width:0" width="10" x="10" y="20"/>
	<rect height="10" rx="0" ry="0" style="fill:rgb(49,147,49);fill-opacity:1;stroke:rgb(0,0,0);stroke-opacity:1;stroke-width:0" width="10" x="10" y="30"/>
	<rect height="10" rx="0" ry="0" style="fill:rgb(42,147,42);fill-opacity:1;stroke:rgb(0,0,0);stroke-opacity:1;stroke-width:0" width="10" x="10" y="40"/>
	<rect height="10" rx="0" ry="0" style="fill:rgb(32,147,32);fill-opacity:1;stroke:rgb(0,0,0);stroke-opacity:1;stroke-width:0" width="10" x="10" y="50"/>
	<rect height="10" rx="0" ry="0" style="fill:rgb(139,147,139);fill-opacity:1;stroke:rgb(0,0,0);stroke-opacity:1;stroke-width:0" width="10" x="10" y="60"/>
	<rect height="10" rx="0" ry="0" style="fill:rgb(97,147,97);fill-opacity:1;stroke:rgb(0,0,0);stroke-opacity:1;stroke-width:0" width="10" x="10" y="70"/>
	<rect height="10" rx="0" ry="0" style="fill:rgb(33,147,33);fill-opacity:1;stroke:rgb(0,0,0);stroke-opacity:1;stroke-width:0" width="10" x="10" y="80"/>
	<rect height="10" rx="0" ry="0" style="fill:rgb(92,147,92);fill-opacity:1;stroke:rgb(0,0,0);stroke-opacity:1;stroke-width:0" width="10" x="10" y="90"/>
	<rect height="10" rx="0" ry="0" style="fill:rgb(0,147,0);fill-opacity:1;stroke:rgb(0,0,0);stroke-opacity:1;stroke-width:0" width="10" x="20" y="0"/>
	<rect height="10" rx="0" ry="0" style="fill:rgb(34,147,34);fill-opacity:1;stroke:rgb(0,0,0);stroke-opacity:1;stroke-width:0" width="10" x="20" y="10"/>
	<rect height="10" rx="0" ry="0" style="fill:rgb(135,147,135);fill-opacity:1;stroke:rgb(0,0,0);stroke-opacity:1;stroke-width:0" width="10" x="20" y="20"/>
	<rect height="10" rx="0" ry="0" style="fill:rgb(14,147,14);fill-opacity:1;stroke:rgb(0,0,0);stroke-opacity:1;stroke-width:0" width="10" x="20" y="30"/>
	<rect height="10" rx="0" ry="0" style="fill:rgb(81,147,81);fill-opacity:1;stroke:rgb(0,0,0);stroke-opacity:1;stroke-width:0" width="10" x="20" y="40"/>
	<rect height="10" rx="0" ry="0" style="fill:rgb(75,147,75);fill-opacity:1;stroke:rgb(0,0,0);stroke-opacity:1;stroke-width:0" width="10" x="20" y="50"/>
	<rect height="10" rx="0" ry="0" style="fill:rgb(105,147,105);fill-opacity:1;stroke:rgb(0,0,0);stroke-opacity:1;stroke-width:0" width="10" x="20" y="60"/>
	<rect height="10" rx="0" ry="0" style="fill:rgb(121,147,121);fill-opacity:1;stroke:rgb(0,0,0);stroke-opacity:1;stroke-width:0" width="10" x="20" y="70"/>
	<rect height="10" rx="0" ry="0" style="fill:rgb(12,147,12);fill-opacity:1;stroke:rgb(0,0,0);stroke-opacity:1;stroke-width:0" width="10" x="20" y="80"/>
	<rect height="10" rx="0" ry="0" style="fill:rgb(137,147,137);fill-opacity:1;stroke:rgb(0,0,0);stroke-opacity:1;stroke-width:0" width="10" x="20" y="90"/>
	<rect height="10" rx="0" ry="0" style="fill:rgb(71,147,71);fill-opacity:1;stroke:rgb(0,0,0);stroke-opacity:1;stroke-width:0" width="10" x="30" y="0"/>
	<rect height="10" rx="0" ry="0" style="fill:rgb(99,147,99);fill-opacity:1;stroke:rgb(0,0,0);stroke-opacity:1;stroke-width:0" width="10" x="30" y="10"/>
	<rect height="10" rx="0" ry="0" style="fill:rgb(72,147,72);fill-opacity:1;stroke:rgb(0,0,0);stroke-opacity:1;stroke-width:0" width="10" x="30" y="20"/>
	<rect height="10" rx="0" ry="0" style="fill:rgb(133,147,133);fill-opacity:1;stroke:rgb(0,0,0);stroke-opacity:1;stroke-width:0" width="10" x="30" y="30"/>
	<rect height="10" rx="0" ry="0" style="fill:rgb(135,147,135);fill-opacity:1;stroke:rgb(0,0,0);stroke-opacity:1;stroke-width:0" width="10" x="30" y="40"/>
	<rect height="10" rx="0" ry="0" style="fill:rgb(89,147,89);fill-opacity:1;stroke:rgb(0,0,0);stroke-opacity:1;stroke-width:0" width="10" x="30" y="50"/>
	<rect height="10" rx="0" ry="0" style="fill:rgb(10,147,10);fill-opacity:1;stroke:rgb(0,0,0);stroke-opacity:1;stroke-width:0" width="10" x="30" y="60"/>
	<rect height="10" rx="0" ry="0" style="fill:rgb(77,147,77);fill-opacity:1;stroke:rgb(0,0,0);stroke-opacity:1;stroke-width:0" width="10" x="30" y="70"/>
	<rect height="10" rx="0" ry="0" style="fill:rgb(139,147,139);fill-opacity:1;stroke:rgb(0,0,0);stroke-opacity:1;stroke-width:0" width="10" x="30" y="80"/>
	<rect height="10" rx="0" ry="0" style="fill:rgb(31,147,31);fill-opacity:1;stroke:rgb(0,0,0);stroke-opacity:1;stroke-width:0" width="10" x="30" y="90"/>
	<rect height="10" rx="0" ry="0" style="fill:rgb(128,147,128);fill-opacity:1;stroke:rgb(0,0,0);stroke-opacity:1;stroke-width:0" width="10" x="40" y="0"/>
	<rect height="10" rx="0" ry="0" style="fill:rgb(43,147,43);fill-opacity:1;stroke:rgb(0,0,0);stroke-opacity:1;stroke-width:0" width="10" x="40" y="10"/>
	<rect height="10" rx="0" ry="0" style="fill:rgb(52,147,52);fill-opacity:1;stroke:rgb(0,0,0);stroke-opacity:1;stroke-width:0" width="10" x="40" y="20"/>
	<rect height="10" rx="0" ry="0" style="fill:rgb(38,147,38);fill-opacity:1;stroke:rgb(0,0,0);stroke-opacity:1;stroke-width:0" width="10" x="40" y="30"/>
	<rect height="10" rx="0" ry="0" style="fill:rgb(14,147,14);fill-opacity:1;stroke:rgb(0,0,0);stroke-opacity:1;stroke-width:0" width="10" x="40" y="40"/>
	<rect height="10" rx="0" ry="0" style="fill:rgb(100,147,100);fill-opacity:1;stroke:rgb(0,0,0);stroke-opacity:1;stroke-width:0" width="10" x="40" y="50"/>
	<rect height="10" rx="0" ry="0" style="fill:rgb(70,147,70);fill-opacity:1;stroke:rgb(0,0,0);stroke-opacity:1;stroke-width:0" width="10" x="40" y="60"/>
	<rect height="10" rx="0" ry="0" style="fill:rgb(20,147,20);fill-opacity:1;stroke:rgb(0,0,0);stroke-opacity:1;stroke-width:0" width="10" x="40" y="70"/>
	<rect height="10" rx="0" ry="0" style="fill:rgb(21,147,21);fill-opacity:1;stroke:rgb(0,0,0);stroke-opacity:1;stroke-width:0" width="10" x="40" y="80"/>
	<rect height="10" rx="0" ry="0" style="fill:rgb(84,147,84);fill-opacity:1;stroke:rgb(0,0,0);stroke-opacity:1;stroke-width:0" width="10" x="40" y="90"/>
	<rect height="10" rx="0" ry="0" style="fill:rgb(76,147,76);fill-opacity:1;stroke:rgb(0,0,0);stroke-opacity:1;stroke-width:0" width="10" x="50" y="0"/>
	<rect height="10" rx="0" ry="0" style="fill:rgb(120,147,120);fill-opacity:1;stroke:rgb(0,0,0);stroke-opacity:1;stroke-width:0" width="10" x="50" y="10"/>
	<rect height="10" rx="0" ry="0" style="fill:rgb(61,147,61);fill-opacity:1;stroke:rgb(0,0,0);stroke-opacity:1;stroke-width:0" width="10" x="50" y="20"/>
	<rect height="10" rx="0" ry="0" style="fill:rgb(141,147,141);fill-opacity:1;stroke:rgb(0,0,0);stroke-opacity:1;stroke-width:0" width="10" x="50" y="30"/>
	<rect height="10" rx="0" ry="0" style="fill:rgb(72,147,72);fill-opacity:1;stroke:rgb(0,0,0);stroke-opacity:1;stroke-width:0" width="10" x="50" y="40"/>
	<rect height="10" rx="0" ry="0" style="fill:rgb(34,147,34);fill-opacity:1;stroke:rgb(0,0,0);stroke-opacity:1;stroke-width:0" width="10" x="50" y="50"/>
	<rect height="10" rx="0" ry="0" style="fill:rgb(13,147,13);fill-opacity:1;stroke:rgb(0,0,0);stroke-opacity:1;stroke-width:0" width="10" x="50" y="60"/>
	<rect height="10" rx="0" ry="0" style="fill:rgb(20,147,20);fill-opacity:1;stroke:rgb(0,0,0);stroke-opacity:1;stroke-width:0" width="10" x="50" y="70"/>
	<rect height="10" rx="0" ry="0" style="fill:rgb(114,147,114);fill-opacity:1;stroke:rgb(0,0,0);stroke-opacity:1;stroke-width:0" width="10" x="50" y="80"/>
	<rect height="10" rx="0" ry="0" style="fill:rgb(127,147,127);fill-opacity:1;stroke:rgb(0,0,0);stroke-opacity:1;stroke-width:0" width="10" x="50" y="90"/>
	<rect height="10" rx="0" ry="0" style="fill:rgb(105,147,105);fill-opacity:1;stroke:rgb(0,0,0);stroke-opacity:1;stroke-width:0" width="10" x="60" y="0"/>
	<rect height="10" rx="0" ry="0" style="fill:rgb(84,147,84);fill-opacity:1;stroke:rgb(0,0,0);stroke-opacity:1;stroke-width:0" width="10" x="60" y="10"/>
	<rect height="10" rx="0" ry="0" style="fill:rgb(40,147,40);fill-opacity:1;stroke:rgb(0,0,0);stroke-opacity:1;stroke-width:0" width="10" x="60" y="20"/>
	<rect height="10" rx="0" ry="0" style="fill:rgb(110,147,110);fill-opacity:1;stroke:rgb(0,0,0);stroke-opacity:1;stroke-width:0" width="10" x="60" y="30"/>
	<rect height="10" rx="0" ry="0" style="fill:rgb(99,147,99);fill-opacity:1;stroke:rgb(0,0,0);stroke-opacity:1;stroke-width:0" width="10" x="60" y="40"/>
	<rect height="10" rx="0" ry="0" style="fill:rgb(49,147,49);fill-opacity:1;stroke:rgb(0,0,0);stroke-opacity:1;stroke-width:0" width="10" x="60" y="50"/>
	<rect height="10" rx="0" ry="0" style="fill:rgb(44,147,44);fill-opacity:1;stroke:rgb(0,0,0);stroke-opacity:1;stroke-width:0" width="10" x="60" y="60"/>
	<rect height="10" rx="0" ry="0" style="fill:rgb(88,147,88);fill-opacity:1;stroke:rgb(0,0,0);stroke-opacity:1;stroke-width:0" width="10" x="60" y="70"/>
	<rect height="10" rx="0" ry="0" style="fill:rgb(124,147,124);fill-opacity:1;stroke:rgb(0,0,0);stroke-opacity:1;stroke-width:0" width="10" x="60" y="80"/>
	<rect height="10" rx="0" ry="0" style="fill:rgb(20,147,20);fill-opacity:1;stroke:rgb(0,0,0);stroke-opacity:1;stroke-width:0" width="10" x="60" y="90"/>
	<rect height="10" rx="0" ry="0" style="fill:rgb(4,147,4);fill-opacity:1;stroke:rgb(0,0,0);stroke-opacity:1;stroke-width:0" width="10" x="70" y="0"/>
	<rect height="10" rx="0" ry="0" style="fill:rgb(124,147,124);fill-opacity:1;stroke:rgb(0,0,0);stroke-opacity:1;stroke-width:0" width="10" x="70" y="10"/>
	<rect height="10" rx="0" ry="0" style="fill:rgb(85,147,85);fill-opacity:1;stroke:rgb(0,0,0);stroke-opacity:1;stroke-width:0" width="10" x="70" y="20"/>
	<rect height="10" rx="0" ry="0" style="fill:rgb(62,147,62);fill-opacity:1;stroke:rgb(0,0,0);stroke-opacity:1;stroke-width:0" width="10" x="70" y="30"/>
	<rect height="10" rx="0" ry="0" style="fill:rgb(73,147,73);fill-opacity:1;stroke:rgb(0,0,0);stroke-opacity:1;stroke-width:0" width="10" x="70" y="40"/>
	<rect height="10" rx="0" ry="0" style="fill:rgb(3,147,3);fill-opacity:1;stroke:rgb(0,0,0);stroke-opacity:1;stroke-width:0" width="10" x="70" y="50"/>
	<rect height="10" rx="0" ry="0" style="fill:rgb(116,147,116);fill-opacity:1;stroke:rgb(0,0,0);stroke-opacity:1;stroke-width:0" width="10" x="70" y="60"/>
	<rect height="10" rx="0" ry="0" style="fill:rgb(52,147,52);fill-opacity:1;stroke:rgb(0,0,0);stroke-opacity:1;stroke-width:0" width="10" x="70" y="70"/>
	<rect height="10" rx="0" ry="0" style="fill:rgb(49,147,49);fill-opacity:1;stroke:rgb(0,0,0);stroke-opacity:1;stroke-width:0" width="10" x="70" y="80"/>
	<rect height="10" rx="0" ry="0" style="fill:rgb(26,147,26);fill-opacity:1;stroke:rgb(0,0,0);stroke-opacity:1;stroke-width:0" width="10" x="70" y="90"/>
	<rect height="10" rx="0" ry="0" style="fill:rgb(75,147,75);fill-opacity:1;stroke:rgb(0,0,0);stroke-opacity:1;stroke-width:0" width="10" x="80" y="0"/>
	<rect height="10" rx="0" ry="0" style="fill:rgb(116,147,116);fill-opacity:1;stroke:rgb(0,0,0);stroke-opacity:1;stroke-width:0" width="10" x="80" y="10"/>
	<rect height="10" rx="0" ry="0" style="fill:rgb(12,147,12);fill-opacity:1;stroke:rgb(0,0,0);stroke-opacity:1;stroke-width:0" width="10" x="80" y="20"/>
	<rect height="10" rx="0" ry="0" style="fill:rgb(125,147,125);fill-opacity:1;stroke:rgb(0,0,0);stroke-opacity:1;stroke-width:0" width="10" x="80" y="30"/>
	<rect height="10" rx="0" ry="0" style="fill:rgb(85,147,85);fill-opacity:1;stroke:rgb(0,0,0);stroke-opacity:1;stroke-width:0" width="10" x="80" y="40"/>
	<rect height="10" rx="0" ry="0" style="fill:rgb(14,147,14);fill-opacity:1;stroke:rgb(0,0,0);stroke-opacity:1;stroke-width:0" width="10" x="80" y="50"/>
	<rect height="10" rx="0" ry="0" style="fill:rgb(122,147,122);fill-opacity:1;stroke:rgb(0,0,0);stroke-opacity:1;stroke-width:0" width="10" x="80" y="60"/>
	<rect height="10" rx="0" ry="0" style="fill:rgb(92,147,92);fill-opacity:1;stroke:rgb(0,0,0);stroke-opacity:1;stroke-width:0" width="10" x="80" y="70"/>
	<rect height="10" rx="0" ry="0" style="fill:rgb(126,147,126);fill-opacity:1;stroke:rgb(0,0,0);stroke-opacity:1;stroke-width:0" width="10" x="80" y="80"/>
	<rect height="10" rx="0" ry="0" style="fill:rgb(78,147,78);fill-opacity:1;stroke:rgb(0,0,0);stroke-opacity:1;stroke-width:0" width="10" x="80" y="90"/>
	<rect height="10" rx="0" ry="0" style="fill:rgb(79,147,79);fill-opacity:1;stroke:rgb(0,0,0);stroke-opacity:1;stroke-width:0" width="10" x="90" y="0"/>
	<rect height="10" rx="0" ry="0" style="fill:rgb(7,147,7);fill-opacity:1;stroke:rgb(0,0,0);stroke-opacity:1;stroke-width:0" width="10" x="90" y="10"/>
	<rect height="10" rx="0" ry="0" style="fill:rgb(114,147,114);fill-opacity:1;stroke:rgb(0,0,0);stroke-opacity:1;stroke-width:0" width="10" x="90" y="20"/>
	<rect height="10" rx="0" ry="0" style="fill:rgb(10,147,10);fill-opacity:1;stroke:rgb(0,0,0);stroke-opacity:1;stroke-width:0" width="10" x="90" y="30"/>
	<rect height="10" rx="0" ry="0" style="fill:rgb(18,147,18);fill-opacity:1;stroke:rgb(0,0,0);stroke-opacity:1;stroke-width:0" width="10" x="90" y="40"/>
	<rect height="10" rx="0" ry="0" style="fill:rgb(71,147,71);fill-opacity:1;stroke:rgb(0,0,0);stroke-opacity:1;stroke-width:0" width="10" x="90" y="50"/>
	<rect height="10" rx="0" ry="0" style="fill:rgb(24,147,24);fill-opacity:1;stroke:rgb(0,0,0);stroke-opacity:1;stroke-width:0" width="10" x="90" y="60"/>
	<rect height="10" rx="0" ry="0" style="fill:rgb(77,147,77);fill-opacity:1;stroke:rgb(0,0,0);stroke-opacity:1;stroke-width:0" width="10" x="90" y="70"/>
	<rect height="10" rx="0" ry="0" style="fill:rgb(52,147,52);fill-opacity:1;stroke:rgb(0,0,0);stroke-opacity:1;stroke-width:0" width="10" x="90" y="80"/>
	<rect height="10" rx="0" ry="0" style="fill:rgb(23,147,23);fill-opacity:1;stroke:rgb(0,0,0);stroke-opacity:1;stroke-width:0" width="10" x="90" y="90"/>
</svg>
