<?xml version="1.0" encoding="utf-8"?>
<svg height="400" preserveAspectRatio="none" style="fill:rgb(255,255,255);fill-opacity:0;stroke:rgb(0,0,0);stroke-opacity:1;stroke-width:2" transform="matrix(1 0 0 -1 0 0) matrix(1 0 0 1 0 -400)" viewBox="0 0 3 400" width="400">
	<rect height="400" rx="0" ry="0" style="fill:rgb(255,255,255);fill-opacity:1;stroke:rgb(0,0,0);stroke-opacity:1;stroke-width:0" width="3" x="0" y="0"/>
	<polyline points="0,0 0.00390625,1.5625 0.0078125,3.12497 0.0117188,4.68739 0.015625,6.24975 0.0195312,7.812 0.0234375,9.37414 0.0273438,10.9361 0.03125,12.498 0.0351562,14.0596 0.0390625,15.621 0.0429688,17.1822 0.046875,18.7431 0.0507812,20.3038 0.0546875,21.8641 0.0585938,23.4241 0.0625,24.9837 0.0664062,26.543 0.0703125,28.1018 0.0742188,29.6603 0.078125,31.2182 0.0820312,32.7757 0.0859375,34.3327 0.0898438,35.8892 0.09375,37.4451 0.0976562,39.0004 0.101562,40.5552 0.105469,42.1093 0.109375,43.6628 0.113281,45.2156 0.117188,46.7678 0.121094,48.3192 0.125,49.8699 0.128906,51.4198 0.132812,52.969 0.136719,54.5173 0.140625,56.0648 0.144531,57.6114 0.148438,59.1572 0.152344,60.7021 0.15625,62.246 0.160156,63.789 0.164062,65.331 0.167969,66.872 0.171875,68.412 0.175781,69.951 0.179688,71.4888 0.183594,73.0256 0.1875,74.5613 0.191406,76.0959 0.195312,77.6292 0.199219,79.1614 0.203125,80.6924 0.207031,82.2222 0.210938,83.7507 0.214844,85.2779 0.21875,86.8038 0.222656,88.3284 0.226562,89.8517 0.230469,91.3736 0.234375,92.894 0.238281,94.4131 0.242188,95.9307 0.246094,97.4469 0.25,98.9616 0.253906,100.475 0.257812,101.986 0.261719,103.496 0.265625,105.005 0.269531,106.512 0.273438,108.017 0.277344,109.521 0.28125,111.023 0.285156,112.523 0.289062,114.021 0.292969,115.518 0.296875,117.013 0.300781,118.507 0.304688,119.998 0.308594,121.488 0.3125,122.975 0.316406,124.461 0.320312,125.945 0.324219,127.427 0.328125,128.907 0.332031,130.386 0.335938,131.862 0.339844,133.336 0.34375,134.808 0.347656,136.278 0.351562,137.746 0.355469,139.212 0.359375,140.676 0.363281,142.137 0.367188,143.597 0.371094,145.054 0.375,146.509 0.378906,147.962 0.382812,149.412 0.386719,150.861 0.390625,152.307 0.394531,153.75 0.398438,155.191 0.402344,156.63 0.40625,158.067 0.410156,159.501 0.414062,160.933 0.417969,162.362 0.421875,163.789 0.425781,165.213 0.429688,166.635 0.433594,168.054 0.4375,169.471 0.441406,170.885 0.445312,172.296 0.449219,173.705 0.453125,175.111 0.457031,176.514 0.460938,177.915 0.464844,179.313 0.46875,180.709 0.472656,182.101 0.476562,183.491 0.480469,184.878 0.484375,186.262 0.488281,187.643 0.492188,189.022 0.496094,190.398 0.5,191.77 0.503906,193.14 0.507812,194.507 0.511719,195.871 0.515625,197.231 0.519531,198.589 0.523438,199.944 0.527344,201.296 0.53125,202.645 0.535156,203.99 0.539062,205.333 0.542969,206.672 0.546875,208.008 0.550781,209.341 0.554688,210.671 0.558594,211.998 0.5625,213.321 0.566406,214.641 0.570312,215.958 0.574219,217.272 0.578125,218.582 0.582031,219.889 0.585938,221.192 0.589844,222.492 0.59375,223.789 0.597656,225.083 0.601562,226.373 0.605469,227.659 0.609375,228.942 0.613281,230.222 0.617188,231.498 0.621094,232.77 0.625,234.039 0.628906,235.304 0.632812,236.566 0.636719,237.824 0.640625,239.079 0.644531,240.33 0.648438,241.577 0.652344,242.82 0.65625,244.06 0.660156,245.296 0.664062,246.528 0.667969,247.757 0.671875,248.982 0.675781,250.203 0.679688,251.42 0.683594,252.633 0.6875,253.843 0.691406,255.048 0.695312,256.25 0.699219,257.448 0.703125,258.642 0.707031,259.832 0.710938,261.018 0.714844,262.2 0.71875,263.378 0.722656,264.552 0.726562,265.722 0.730469,266.888 0.734375,268.049 0.738281,269.207 0.742188,270.361 0.746094,271.51 0.75,272.656 0.753906,273.797 0.757812,274.934 0.761719,276.066 0.765625,277.195 0.769531,278.319 0.773438,279.44 0.777344,280.555 0.78125,281.667 0.785156,282.774 0.789062,283.877 0.792969,284.976 0.796875,286.07 0.800781,287.16 0.804688,288.246 0.808594,289.327 0.8125,290.403 0.816406,291.476 0.820312,292.544 0.824219,293.607 0.828125,294.666 0.832031,295.72 0.835938,296.77 0.839844,297.816 0.84375,298.856 0.847656,299.893 0.851562,300.924 0.855469,301.951 0.859375,302.974 0.863281,303.992 0.867188,305.005 0.871094,306.014 0.875,307.017 0.878906,308.017 0.882812,309.011 0.886719,310.001 0.890625,310.986 0.894531,311.966 0.898438,312.942 0.902344,313.913 0.90625,314.879 0.910156,315.84 0.914062,316.796 0.917969,317.748 0.921875,318.694 0.925781,319.636 0.929688,320.573 0.933594,321.505 0.9375,322.432 0.941406,323.355 0.945312,324.272 0.949219,325.184 0.953125,326.092 0.957031,326.994 0.960938,327.892 0.964844,328.784 0.96875,329.671 0.972656,330.554 0.976562,331.431 0.980469,332.303 0.984375,333.171 0.988281,334.033 0.992188,334.89 0.996094,335.742 1,336.588 1.00391,337.43 1.00781,338.267 1.01172,339.098 1.01562,339.924 1.01953,340.745 1.02344,341.561 1.02734,342.371 1.03125,343.177 1.03516,343.977 1.03906,344.772 1.04297,345.561 1.04688,346.346 1.05078,347.125 1.05469,347.898 1.05859,348.667 1.0625,349.43 1.06641,350.188 1.07031,350.94 1.07422,351.687 1.07812,352.429 1.08203,353.165 1.08594,353.896 1.08984,354.622 1.09375,355.342 1.09766,356.057 1.10156,356.766 1.10547,357.47 1.10938,358.168 1.11328,358.861 1.11719,359.549 1.12109,360.231 1.125,360.907 1.12891,361.578 1.13281,362.243 1.13672,362.903 1.14062,363.558 1.14453,364.207 1.14844,364.85 1.15234,365.488 1.15625,366.12 1.16016,366.746 1.16406,367.367 1.16797,367.982 1.17188,368.592 1.17578,369.196 1.17969,369.795 1.18359,370.388 1.1875,370.975 1.19141,371.556 1.19531,372.132 1.19922,372.702 1.20312,373.267 1.20703,373.826 1.21094,374.379 1.21484,374.926 1.21875,375.468 1.22266,376.004 1.22656,376.534 1.23047,377.058 1.23438,377.577 1.23828,378.09 1.24219,378.597 1.24609,379.098 1.25,379.594 1.25391,380.084 1.25781,380.568 1.26172,381.046 1.26562,381.518 1.26953,381.985 1.27344,382.445 1.27734,382.9 1.28125,383.349 1.28516,383.793 1.28906,384.23 1.29297,384.661 1.29688,385.087 1.30078,385.507 1.30469,385.921 1.30859,386.329 1.3125,386.731 1.31641,387.127 1.32031,387.517 1.32422,387.901 1.32812,388.28 1.33203,388.652 1.33594,389.019 1.33984,389.38 1.34375,389.734 1.34766,390.083 1.35156,390.426 1.35547,390.763 1.35938,391.093 1.36328,391.418 1.36719,391.737 1.37109,392.05 1.375,392.357 1.37891,392.658 1.38281,392.953 1.38672,393.242 1.39062,393.525 1.39453,393.802 1.39844,394.073 1.40234,394.338 1.40625,394.597 1.41016,394.85 1.41406,395.097 1.41797,395.338 1.42188,395.573 1.42578,395.801 1.42969,396.024 1.43359,396.241 1.4375,396.452 1.44141,396.656 1.44531,396.855 1.44922,397.047 1.45312,397.234 1.45703,397.414 1.46094,397.589 1.46484,397.757 1.46875,397.919 1.47266,398.075 1.47656,398.225 1.48047,398.369 1.48438,398.507 1.48828,398.639 1.49219,398.765 1.49609,398.884 1.5,398.998 1.50391,399.105 1.50781,399.207 1.51172,399.302 1.51562,399.391 1.51953,399.474 1.52344,399.552 1.52734,399.622 1.53125,399.687 1.53516,399.746 1.53906,399.799 1.54297,399.845 1.54688,399.886 1.55078,399.92 1.55469,399.948 1.55859,399.97 1.5625,399.986 1.56641,399.996 1.57031,400 1.57422,399.998 1.57812,399.989 1.58203,399.975 1.58594,399.954 1.58984,399.927 1.59375,399.895 1.59766,399.856 1.60156,399.811 1.60547,399.76 1.60938,399.702 1.61328,399.639 1.61719,399.57 1.62109,399.494 1.625,399.413 1.62891,399.325 1.63281,399.231 1.63672,399.131 1.64062,399.025 1.64453,398.913 1.64844,398.795 1.65234,398.671 1.65625,398.54 1.66016,398.404 1.66406,398.262 1.66797,398.113 1.67188,397.958 1.67578,397.798 1.67969,397.631 1.68359,397.458 1.6875,397.279 1.69141,397.094 1.69531,396.903 1.69922,396.706 1.70312,396.503 1.70703,396.294 1.71094,396.079 1.71484,395.857 1.71875,395.63 1.72266,395.397 1.72656,395.157 1.73047,394.912 1.73438,394.66 1.73828,394.403 1.74219,394.139 1.74609,393.87 1.75,393.594 1.75391,393.313 1.75781,393.025 1.76172,392.732 1.76562,392.432 1.76953,392.127 1.77344,391.815 1.77734,391.498 1.78125,391.174 1.78516,390.845 1.78906,390.51 1.79297,390.168 1.79688,389.821 1.80078,389.468 1.80469,389.109 1.80859,388.744 1.8125,388.373 1.81641,387.996 1.82031,387.613 1.82422,387.224 1.82812,386.829 1.83203,386.429 1.83594,386.022 1.83984,385.61 1.84375,385.192 1.84766,384.767 1.85156,384.337 1.85547,383.901 1.85938,383.46 1.86328,383.012 1.86719,382.559 1.87109,382.099 1.875,381.634 1.87891,381.163 1.88281,380.687 1.88672,380.204 1.89062,379.716 1.89453,379.222 1.89844,378.722 1.90234,378.216 1.90625,377.704 1.91016,377.187 1.91406,376.664 1.91797,376.135 1.92188,375.601 1.92578,375.061 1.92969,374.515 1.93359,373.963 1.9375,373.406 1.94141,372.843 1.94531,372.274 1.94922,371.699 1.95312,371.119 1.95703,370.534 1.96094,369.942 1.96484,369.345 1.96875,368.742 1.97266,368.134 1.97656,367.52 1.98047,366.901 1.98438,366.275 1.98828,365.645 1.99219,365.008 1.99609,364.366 2,363.719 2.00391,363.066 2.00781,362.407 2.01172,361.743 2.01562,361.074 2.01953,360.399 2.02344,359.718 2.02734,359.032 2.03125,358.34 2.03516,357.643 2.03906,356.941 2.04297,356.233 2.04688,355.52 2.05078,354.801 2.05469,354.077 2.05859,353.347 2.0625,352.612 2.06641,351.872 2.07031,351.126 2.07422,350.375 2.07812,349.618 2.08203,348.856 2.08594,348.089 2.08984,347.317 2.09375,346.539 2.09766,345.756 2.10156,344.968 2.10547,344.174 2.10938,343.375 2.11328,342.571 2.11719,341.762 2.12109,340.948 2.125,340.128 2.12891,339.303 2.13281,338.473 2.13672,337.638 2.14062,336.797 2.14453,335.952 2.14844,335.101 2.15234,334.245 2.15625,333.385 2.16016,332.519 2.16406,331.648 2.16797,330.772 2.17188,329.89 2.17578,329.004 2.17969,328.113 2.18359,327.217 2.1875,326.316 2.19141,325.41 2.19531,324.498 2.19922,323.582 2.20312,322.661 2.20703,321.735 2.21094,320.805 2.21484,319.869 2.21875,318.928 2.22266,317.983 2.22656,317.032 2.23047,316.077 2.23438,315.117 2.23828,314.152 2.24219,313.183 2.24609,312.208 2.25,311.229 2.25391,310.245 2.25781,309.257 2.26172,308.263 2.26562,307.265 2.26953,306.263 2.27344,305.255 2.27734,304.243 2.28125,303.226 2.28516,302.205 2.28906,301.179 2.29297,300.149 2.29688,299.113 2.30078,298.074 2.30469,297.03 2.30859,295.981 2.3125,294.927 2.31641,293.87 2.32031,292.807 2.32422,291.741 2.32812,290.67 2.33203,289.594 2.33594,288.514 2.33984,287.429 2.34375,286.341 2.34766,285.247 2.35156,284.15 2.35547,283.048 2.35938,281.942 2.36328,280.831 2.36719,279.716 2.37109,278.597 2.375,277.474 2.37891,276.346 2.38281,275.215 2.38672,274.079 2.39062,272.939 2.39453,271.794 2.39844,270.646 2.40234,269.493 2.40625,268.337 2.41016,267.176 2.41406,266.011 2.41797,264.842 2.42188,263.669 2.42578,262.492 2.42969,261.311 2.43359,260.126 2.4375,258.937 2.44141,257.744 2.44531,256.547 2.44922,255.347 2.45312,254.142 2.45703,252.933 2.46094,251.721 2.46484,250.505 2.46875,249.285 2.47266,248.061 2.47656,246.833 2.48047,245.602 2.48438,244.367 2.48828,243.128 2.49219,241.885 2.49609,240.639 2.5,239.389 2.50391,238.135 2.50781,236.878 2.51172,235.617 2.51562,234.353 2.51953,233.085 2.52344,231.813 2.52734,230.538 2.53125,229.259 2.53516,227.977 2.53906,226.692 2.54297,225.402 2.54688,224.11 2.55078,222.814 2.55469,221.515 2.55859,220.212 2.5625,218.906 2.56641,217.596 2.57031,216.284 2.57422,214.968 2.57812,213.648 2.58203,212.326 2.58594,211 2.58984,209.671 2.59375,208.339 2.59766,207.003 2.60156,205.665 2.60547,204.323 2.60938,202.978 2.61328,201.63 2.61719,200.279 2.62109,198.925 2.625,197.568 2.62891,196.208 2.63281,194.845 2.63672,193.479 2.64062,192.11 2.64453,190.738 2.64844,189.363 2.65234,187.985 2.65625,186.605 2.66016,185.221 2.66406,183.835 2.66797,182.446 2.67188,181.054 2.67578,179.659 2.67969,178.262 2.68359,176.862 2.6875,175.459 2.69141,174.053 2.69531,172.645 2.69922,171.234 2.70312,169.821 2.70703,168.405 2.71094,166.986 2.71484,165.565 2.71875,164.142 2.72266,162.716 2.72656,161.287 2.73047,159.856 2.73438,158.422 2.73828,156.986 2.74219,155.548 2.74609,154.107 2.75,152.664 2.75391,151.219 2.75781,149.771 2.76172,148.321 2.76562,146.869 2.76953,145.415 2.77344,143.958 2.77734,142.499 2.78125,141.038 2.78516,139.575 2.78906,138.109 2.79297,136.642 2.79688,135.172 2.80078,133.701 2.80469,132.227 2.80859,130.751 2.8125,129.274 2.81641,127.794 2.82031,126.313 2.82422,124.829 2.82812,123.344 2.83203,121.856 2.83594,120.367 2.83984,118.876 2.84375,117.383 2.84766,115.889 2.85156,114.392 2.85547,112.894 2.85938,111.395 2.86328,109.893 2.86719,108.39 2.87109,106.885 2.875,105.378 2.87891,103.87 2.88281,102.361 2.88672,100.849 2.89062,99.3366 2.89453,97.8223 2.89844,96.3065 2.90234,94.7892 2.90625,93.2705 2.91016,91.7503 2.91406,90.2288 2.91797,88.7059 2.92188,87.1816 2.92578,85.656 2.92969,84.1291 2.93359,82.6009 2.9375,81.0715 2.94141,79.5408 2.94531,78.0089 2.94922,76.4758 2.95312,74.9416 2.95703,73.4062 2.96094,71.8696 2.96484,70.332 2.96875,68.7933 2.97266,67.2536 2.97656,65.7128 2.98047,64.1711 2.98438,62.6283 2.98828,61.0846 2.99219,59.54 2.99609,57.9944 3,56.448 3.00391,54.9007 3.00781,53.3526 3.01172,51.8036 3.01562,50.2539 3.01953,48.7034 3.02344,47.1522 3.02734,45.6002 3.03125,44.0476 3.03516,42.4942 3.03906,40.9402 3.04297,39.3856 3.04688,37.8304 3.05078,36.2747 3.05469,34.7183 3.05859,33.1615 3.0625,31.6041 3.06641,30.0462 3.07031,28.4879 3.07422,26.9292 3.07812,25.37 3.08203,23.8105 3.08594,22.2506 3.08984,20.6903 3.09375,19.1298 3.09766,17.5689 3.10156,16.0078 3.10547,14.4464 3.10938,12.8848 3.11328,11.323 3.11719,9.76109 3.12109,8.19899 3.125,6.63676 3.12891,5.07443 3.13281,3.51202 3.13672,1.94955 3.14062,0.387061 3.14453,1.17544 3.14844,2.73792 3.15234,4.30036 3.15625,5.86273 3.16016,7.42501 3.16406,8.98718 3.16797,10.5492 3.17188,12.1111 3.17578,13.6728 3.17969,15.2343 3.18359,16.7955 3.1875,18.3565 3.19141,19.9172 3.19531,21.4776 3.19922,23.0377 3.20312,24.5974 3.20703,26.1568 3.21094,27.7157 3.21484,29.2742 3.21875,30.8323 3.22266,32.3899 3.22656,33.9471 3.23047,35.5037 3.23438,37.0597 3.23828,38.6152 3.24219,40.1701 3.24609,41.7244 3.25,43.2781 3.25391,44.831 3.25781,46.3834 3.26172,47.935 3.26562,49.4858 3.26953,51.0359 3.27344,52.5853 3.27734,54.1338 3.28125,55.6815 3.28516,57.2284 3.28906,58.7744 3.29297,60.3195 3.29688,61.8636 3.30078,63.4068 3.30469,64.9491 3.30859,66.4904 3.3125,68.0306 3.31641,69.5698 3.32031,71.108 3.32422,72.645 3.32812,74.181 3.33203,75.7158 3.33594,77.2495 3.33984,78.782 3.34375,80.3133 3.34766,81.8433 3.35156,83.3722 3.35547,84.8997 3.35938,86.426 3.36328,87.9509 3.36719,89.4745 3.37109,90.9967 3.375,92.5175 3.37891,94.0369 3.38281,95.5549 3.38672,97.0715 3.39062,98.5865 3.39453,100.1 3.39844,101.612 3.40234,103.123 3.40625,104.631 3.41016,106.139 3.41406,107.644 3.41797,109.148 3.42188,110.651 3.42578,112.151 3.42969,113.65 3.43359,115.148 3.4375,116.643 3.44141,118.137 3.44531,119.629 3.44922,121.119 3.45312,122.607 3.45703,124.093 3.46094,125.578 3.46484,127.06 3.46875,128.541 3.47266,130.02 3.47656,131.496 3.48047,132.971 3.48438,134.444 3.48828,135.914 3.49219,137.383 3.49609,138.849 3.5,140.313 3.50391,141.775 3.50781,143.235 3.51172,144.693 3.51562,146.149 3.51953,147.602 3.52344,149.053 3.52734,150.502 3.53125,151.949 3.53516,153.393 3.53906,154.835 3.54297,156.274 3.54688,157.711 3.55078,159.146 3.55469,160.578 3.55859,162.008 3.5625,163.436 3.56641,164.86 3.57031,166.283 3.57422,167.703 3.57812,169.12 3.58203,170.534 3.58594,171.947 3.58984,173.356 3.59375,174.763 3.59766,176.167 3.60156,177.568 3.60547,178.967 3.60938,180.363 3.61328,181.756 3.61719,183.147 3.62109,184.535 3.625,185.92 3.62891,187.302 3.63281,188.681 3.63672,190.057 3.64062,191.43 3.64453,192.801 3.64844,194.168 3.65234,195.533 3.65625,196.895 3.66016,198.253 3.66406,199.609 3.66797,200.961 3.67188,202.311 3.67578,203.657 3.67969,205 3.68359,206.341 3.6875,207.678 3.69141,209.011 3.69531,210.342 3.69922,211.669 3.70312,212.994 3.70703,214.314 3.71094,215.632 3.71484,216.947 3.71875,218.258 3.72266,219.565 3.72656,220.87 3.73047,222.171 3.73438,223.468 3.73828,224.763 3.74219,226.053 3.74609,227.341 3.75,228.625 3.75391,229.905 3.75781,231.182 3.76172,232.455 3.76562,233.725 3.76953,234.991 3.77344,236.254 3.77734,237.513 3.78125,238.768 3.78516,240.02 3.78906,241.268 3.79297,242.513 3.79688,243.753 3.80078,244.99 3.80469,246.224 3.80859,247.453 3.8125,248.679 3.81641,249.901 3.82031,251.119 3.82422,252.333 3.82812,253.544 3.83203,254.75 3.83594,255.953 3.83984,257.152 3.84375,258.346 3.84766,259.537 3.85156,260.724 3.85547,261.907 3.85938,263.086 3.86328,264.261 3.86719,265.432 3.87109,266.599 3.875,267.762 3.87891,268.921 3.88281,270.075 3.88672,271.226 3.89062,272.372 3.89453,273.514 3.89844,274.652 3.90234,275.786" style="fill:rgb(255,255,255);fill-opacity:0;stroke:rgb(255,0,0);stroke-opacity:1;stroke-width:0.00975586"/>
	<polyline points="0,400 0.00390625,399.997 0.0078125,399.988 0.0117188,399.973 0.015625,399.951 0.0195312,399.924 0.0234375,399.89 0.0273438,399.85 0.03125,399.805 0.0351562,399.753 0.0390625,399.695 0.0429688,399.631 0.046875,399.561 0.0507812,399.484 0.0546875,399.402 0.0585938,399.314 0.0625,399.219 0.0664062,399.118 0.0703125,399.012 0.0742188,398.899 0.078125,398.78 0.0820312,398.655 0.0859375,398.524 0.0898438,398.387 0.09375,398.243 0.0976562,398.094 0.101562,397.939 0.105469,397.777 0.109375,397.61 0.113281,397.436 0.117188,397.257 0.121094,397.071 0.125,396.879 0.128906,396.681 0.132812,396.477 0.136719,396.267 0.140625,396.051 0.144531,395.829 0.148438,395.601 0.152344,395.367 0.15625,395.127 0.160156,394.881 0.164062,394.629 0.167969,394.371 0.171875,394.106 0.175781,393.836 0.179688,393.56 0.183594,393.278 0.1875,392.989 0.191406,392.695 0.195312,392.395 0.199219,392.089 0.203125,391.776 0.207031,391.458 0.210938,391.134 0.214844,390.804 0.21875,390.468 0.222656,390.126 0.226562,389.778 0.230469,389.424 0.234375,389.064 0.238281,388.698 0.242188,388.326 0.246094,387.949 0.25,387.565 0.253906,387.175 0.257812,386.78 0.261719,386.379 0.265625,385.971 0.269531,385.558 0.273438,385.139 0.277344,384.714 0.28125,384.284 0.285156,383.847 0.289062,383.405 0.292969,382.956 0.296875,382.502 0.300781,382.042 0.304688,381.576 0.308594,381.105 0.3125,380.627 0.316406,380.144 0.320312,379.655 0.324219,379.16 0.328125,378.659 0.332031,378.153 0.335938,377.641 0.339844,377.123 0.34375,376.599 0.347656,376.07 0.351562,375.534 0.355469,374.993 0.359375,374.447 0.363281,373.894 0.367188,373.336 0.371094,372.773 0.375,372.203 0.378906,371.628 0.382812,371.047 0.386719,370.461 0.390625,369.869 0.394531,369.271 0.398438,368.667 0.402344,368.058 0.40625,367.444 0.410156,366.823 0.414062,366.198 0.417969,365.566 0.421875,364.929 0.425781,364.287 0.429688,363.638 0.433594,362.985 0.4375,362.325 0.441406,361.661 0.445312,360.99 0.449219,360.315 0.453125,359.633 0.457031,358.947 0.460938,358.254 0.464844,357.557 0.46875,356.853 0.472656,356.145 0.476562,355.431 0.480469,354.711 0.484375,353.986 0.488281,353.256 0.492188,352.521 0.496094,351.779 0.5,351.033 0.503906,350.281 0.507812,349.524 0.511719,348.762 0.515625,347.994 0.519531,347.221 0.523438,346.442 0.527344,345.659 0.53125,344.87 0.535156,344.076 0.539062,343.276 0.542969,342.471 0.546875,341.662 0.550781,340.846 0.554688,340.026 0.558594,339.201 0.5625,338.37 0.566406,337.534 0.570312,336.693 0.574219,335.847 0.578125,334.995 0.582031,334.139 0.585938,333.278 0.589844,332.411 0.59375,331.539 0.597656,330.663 0.601562,329.781 0.605469,328.894 0.609375,328.002 0.613281,327.106 0.617188,326.204 0.621094,325.297 0.625,324.385 0.628906,323.469 0.632812,322.547 0.636719,321.62 0.640625,320.689 0.644531,319.753 0.648438,318.811 0.652344,317.865 0.65625,316.914 0.660156,315.959 0.664062,314.998 0.667969,314.033 0.671875,313.062 0.675781,312.087 0.679688,311.108 0.683594,310.123 0.6875,309.134 0.691406,308.14 0.695312,307.141 0.699219,306.138 0.703125,305.13 0.707031,304.117 0.710938,303.1 0.714844,302.078 0.71875,301.052 0.722656,300.021 0.726562,298.985 0.730469,297.945 0.734375,296.9 0.738281,295.851 0.742188,294.797 0.746094,293.738 0.75,292.676 0.753906,291.608 0.757812,290.537 0.761719,289.46 0.765625,288.38 0.769531,287.295 0.773438,286.205 0.777344,285.112 0.78125,284.014 0.785156,282.911 0.789062,281.804 0.792969,280.693 0.796875,279.578 0.800781,278.458 0.804688,277.335 0.808594,276.207 0.8125,275.074 0.816406,273.938 0.820312,272.797 0.824219,271.652 0.828125,270.503 0.832031,269.35 0.835938,268.193 0.839844,267.032 0.84375,265.866 0.847656,264.697 0.851562,263.523 0.855469,262.346 0.859375,261.164 0.863281,259.979 0.867188,258.789 0.871094,257.596 0.875,256.399 0.878906,255.198 0.882812,253.992 0.886719,252.783 0.890625,251.57 0.894531,250.354 0.898438,249.133 0.902344,247.909 0.90625,246.681 0.910156,245.449 0.914062,244.213 0.917969,242.974 0.921875,241.731 0.925781,240.484 0.929688,239.234 0.933594,237.98 0.9375,236.722 0.941406,235.461 0.945312,234.196 0.949219,232.927 0.953125,231.655 0.957031,230.38 0.960938,229.101 0.964844,227.818 0.96875,226.532 0.972656,225.243 0.976562,223.95 0.980469,222.653 0.984375,221.354 0.988281,220.05 0.992188,218.744 0.996094,217.434 1,216.121 1.00391,214.804 1.00781,213.485 1.01172,212.162 1.01562,210.836 1.01953,209.506 1.02344,208.173 1.02734,206.838 1.03125,205.499 1.03516,204.157 1.03906,202.811 1.04297,201.463 1.04688,200.112 1.05078,198.757 1.05469,197.4 1.05859,196.039 1.0625,194.676 1.06641,193.309 1.07031,191.94 1.07422,190.568 1.07812,189.192 1.08203,187.814 1.08594,186.433 1.08984,185.05 1.09375,183.663 1.09766,182.273 1.10156,180.881 1.10547,179.486 1.10938,178.088 1.11328,176.688 1.11719,175.285 1.12109,173.879 1.125,172.471 1.12891,171.06 1.13281,169.646 1.13672,168.229 1.14062,166.811 1.14453,165.389 1.14844,163.965 1.15234,162.539 1.15625,161.11 1.16016,159.679 1.16406,158.245 1.16797,156.808 1.17188,155.37 1.17578,153.929 1.17969,152.485 1.18359,151.04 1.1875,149.592 1.19141,148.142 1.19531,146.689 1.19922,145.234 1.20312,143.777 1.20703,142.318 1.21094,140.857 1.21484,139.393 1.21875,137.928 1.22266,136.46 1.22656,134.99 1.23047,133.518 1.23438,132.044 1.23828,130.569 1.24219,129.091 1.24609,127.611 1.25,126.129 1.25391,124.645 1.25781,123.16 1.26172,121.672 1.26562,120.183 1.26953,118.691 1.27344,117.198 1.27734,115.704 1.28125,114.207 1.28516,112.709 1.28906,111.209 1.29297,109.707 1.29688,108.203 1.30078,106.698 1.30469,105.192 1.30859,103.683 1.3125,102.174 1.31641,100.662 1.32031,99.1491 1.32422,97.6346 1.32812,96.1186 1.33203,94.6012 1.33594,93.0823 1.33984,91.562 1.34375,90.0403 1.34766,88.5172 1.35156,86.9927 1.35547,85.467 1.35938,83.9399 1.36328,82.4116 1.36719,80.882 1.37109,79.3511 1.375,77.8191 1.37891,76.2858 1.38281,74.7514 1.38672,73.2159 1.39062,71.6793 1.39453,70.1415 1.39844,68.6027 1.40234,67.0628 1.40625,65.5219 1.41016,63.98 1.41406,62.4372 1.41797,60.8933 1.42188,59.3486 1.42578,57.8029 1.42969,56.2564 1.43359,54.709 1.4375,53.1608 1.44141,51.6117 1.44531,50.0619 1.44922,48.5113 1.45312,46.96 1.45703,45.4079 1.46094,43.8552 1.46484,42.3018 1.46875,40.7477 1.47266,39.193 1.47656,37.6378 1.48047,36.0819 1.48438,34.5255 1.48828,32.9686 1.49219,31.4112 1.49609,29.8532 1.5,28.2949 1.50391,26.7361 1.50781,25.1769 1.51172,23.6173 1.51562,22.0573 1.51953,20.497 1.52344,18.9365 1.52734,17.3756 1.53125,15.8144 1.53516,14.253 1.53906,12.6914 1.54297,11.1296 1.54688,9.56762 1.55078,8.0055 1.55469,6.44325 1.55859,4.88091 1.5625,3.31849 1.56641,1.75603 1.57031,0.193531 1.57422,1.36897 1.57812,2.93144 1.58203,4.49387 1.58594,6.05624 1.58984,7.61851 1.59375,9.18066 1.59766,10.7427 1.60156,12.3045 1.60547,13.8662 1.60938,15.4276 1.61328,16.9889 1.61719,18.5498 1.62109,20.1105 1.625,21.6709 1.62891,23.2309 1.63281,24.7906 1.63672,26.3499 1.64062,27.9088 1.64453,29.4673 1.64844,31.0253 1.65234,32.5828 1.65625,34.1399 1.66016,35.6964 1.66406,37.2524 1.66797,38.8078 1.67188,40.3627 1.67578,41.9169 1.67969,43.4704 1.68359,45.0234 1.6875,46.5756 1.69141,48.1271 1.69531,49.6779 1.69922,51.2279 1.70312,52.7771 1.70703,54.3256 1.71094,55.8732 1.71484,57.4199 1.71875,58.9658 1.72266,60.5108 1.72656,62.0548 1.73047,63.5979 1.73438,65.1401 1.73828,66.6812 1.74219,68.2213 1.74609,69.7604 1.75,71.2984 1.75391,72.8354 1.75781,74.3712 1.76172,75.9059 1.76562,77.4394 1.76953,78.9717 1.77344,80.5029 1.77734,82.0328 1.78125,83.5614 1.78516,85.0888 1.78906,86.6149 1.79297,88.1397 1.79688,89.6631 1.80078,91.1851 1.80469,92.7058 1.80859,94.225 1.8125,95.7428 1.81641,97.2592 1.82031,98.7741 1.82422,100.287 1.82812,101.799 1.83203,103.31 1.83594,104.818 1.83984,106.325 1.84375,107.831 1.84766,109.335 1.85156,110.837 1.85547,112.337 1.85938,113.836 1.86328,115.333 1.86719,116.828 1.87109,118.322 1.875,119.813 1.87891,121.303 1.88281,122.791 1.88672,124.277 1.89062,125.762 1.89453,127.244 1.89844,128.724 1.90234,130.203 1.90625,131.679 1.91016,133.153 1.91406,134.626 1.91797,136.096 1.92188,137.564 1.92578,139.03 1.92969,140.495 1.93359,141.956 1.9375,143.416 1.94141,144.874 1.94531,146.329 1.94922,147.782 1.95312,149.233 1.95703,150.681 1.96094,152.128 1.96484,153.572 1.96875,155.013 1.97266,156.452 1.97656,157.889 1.98047,159.324 1.98438,160.756 1.98828,162.185 1.99219,163.612 1.99609,165.037 2,166.459 2.00391,167.878 2.00781,169.295 2.01172,170.71 2.01562,172.121 2.01953,173.53 2.02344,174.937 2.02734,176.341 2.03125,177.742 2.03516,179.14 2.03906,180.536 2.04297,181.929 2.04688,183.319 2.05078,184.706 2.05469,186.091 2.05859,187.473 2.0625,188.851 2.06641,190.227 2.07031,191.6 2.07422,192.97 2.07812,194.338 2.08203,195.702 2.08594,197.063 2.08984,198.421 2.09375,199.776 2.09766,201.129 2.10156,202.478 2.10547,203.824 2.10938,205.167 2.11328,206.506 2.11719,207.843 2.12109,209.176 2.125,210.507 2.12891,211.834 2.13281,213.157 2.13672,214.478 2.14062,215.795 2.14453,217.109 2.14844,218.42 2.15234,219.727 2.15625,221.031 2.16016,222.332 2.16406,223.629 2.16797,224.923 2.17188,226.213 2.17578,227.5 2.17969,228.783 2.18359,230.063 2.1875,231.34 2.19141,232.613 2.19531,233.882 2.19922,235.148 2.20312,236.41 2.20703,237.669 2.21094,238.923 2.21484,240.175 2.21875,241.422 2.22266,242.666 2.22656,243.907 2.23047,245.143 2.23438,246.376 2.23828,247.605 2.24219,248.83 2.24609,250.052 2.25,251.269 2.25391,252.483 2.25781,253.693 2.26172,254.899 2.26562,256.102 2.26953,257.3 2.27344,258.494 2.27734,259.685 2.28125,260.871 2.28516,262.054 2.28906,263.232 2.29297,264.407 2.29688,265.577 2.30078,266.743 2.30469,267.906 2.30859,269.064 2.3125,270.218 2.31641,271.368 2.32031,272.514 2.32422,273.656 2.32812,274.793 2.33203,275.926 2.33594,277.056 2.33984,278.18 2.34375,279.301 2.34766,280.417 2.35156,281.53 2.35547,282.637 2.35938,283.741 2.36328,284.84 2.36719,285.935 2.37109,287.025 2.375,288.111 2.37891,289.193 2.38281,290.27 2.38672,291.343 2.39062,292.412 2.39453,293.476 2.39844,294.535 2.40234,295.59 2.40625,296.64 2.41016,297.686 2.41406,298.728 2.41797,299.765 2.42188,300.797 2.42578,301.824 2.42969,302.847 2.43359,303.866 2.4375,304.88 2.44141,305.889 2.44531,306.893 2.44922,307.893 2.45312,308.888 2.45703,309.879 2.46094,310.864 2.46484,311.845 2.46875,312.821 2.47266,313.793 2.47656,314.759 2.48047,315.721 2.48438,316.678 2.48828,317.63 2.49219,318.577 2.49609,319.52 2.5,320.457 2.50391,321.39 2.50781,322.318 2.51172,323.241 2.51562,324.159 2.51953,325.072 2.52344,325.98 2.52734,326.883 2.53125,327.781 2.53516,328.674 2.53906,329.562 2.54297,330.445 2.54688,331.323 2.55078,332.196 2.55469,333.063 2.55859,333.926 2.5625,334.784 2.56641,335.636 2.57031,336.484 2.57422,337.326 2.57812,338.163 2.58203,338.995 2.58594,339.822 2.58984,340.644 2.59375,341.46 2.59766,342.271 2.60156,343.077 2.60547,343.878 2.60938,344.674 2.61328,345.464 2.61719,346.249 2.62109,347.028 2.625,347.803 2.62891,348.572 2.63281,349.336 2.63672,350.094 2.64062,350.847 2.64453,351.595 2.64844,352.337 2.65234,353.074 2.65625,353.806 2.66016,354.532 2.66406,355.253 2.66797,355.968 2.67188,356.678 2.67578,357.383 2.67969,358.082 2.68359,358.776 2.6875,359.464 2.69141,360.146 2.69531,360.824 2.69922,361.495 2.70312,362.161 2.70703,362.822 2.71094,363.477 2.71484,364.126 2.71875,364.77 2.72266,365.409 2.72656,366.042 2.73047,366.669 2.73438,367.291 2.73828,367.907 2.74219,368.517 2.74609,369.122 2.75,369.721 2.75391,370.314 2.75781,370.902 2.76172,371.485 2.76562,372.061 2.76953,372.632 2.77344,373.197 2.77734,373.757 2.78125,374.31 2.78516,374.858 2.78906,375.401 2.79297,375.937 2.79688,376.468 2.80078,376.994 2.80469,377.513 2.80859,378.027 2.8125,378.534 2.81641,379.036 2.82031,379.533 2.82422,380.023 2.82812,380.508 2.83203,380.987 2.83594,381.46 2.83984,381.927 2.84375,382.389 2.84766,382.844 2.85156,383.294 2.85547,383.738 2.85938,384.176 2.86328,384.608 2.86719,385.035 2.87109,385.455 2.875,385.87 2.87891,386.278 2.88281,386.681 2.88672,387.078 2.89062,387.469 2.89453,387.854 2.89844,388.233 2.90234,388.606 2.90625,388.974 2.91016,389.335 2.91406,389.691 2.91797,390.04 2.92188,390.384 2.92578,390.721 2.92969,391.053 2.93359,391.378 2.9375,391.698 2.94141,392.012 2.94531,392.32 2.94922,392.621 2.95312,392.917 2.95703,393.207 2.96094,393.49 2.96484,393.768 2.96875,394.04 2.97266,394.306 2.97656,394.565 2.98047,394.819 2.98438,395.067 2.98828,395.308 2.99219,395.544 2.99609,395.773 3,395.997 3.00391,396.214 3.00781,396.426 3.01172,396.631 3.01562,396.831 3.01953,397.024 3.02344,397.211 3.02734,397.392 3.03125,397.567 3.03516,397.736 3.03906,397.899 3.04297,398.056 3.04688,398.207 3.05078,398.352 3.05469,398.49 3.05859,398.623 3.0625,398.75 3.06641,398.87 3.07031,398.984 3.07422,399.092 3.07812,399.195 3.08203,399.291 3.08594,399.381 3.08984,399.465 3.09375,399.542 3.09766,399.614 3.10156,399.68 3.10547,399.739 3.10938,399.792 3.11328,399.84 3.11719,399.881 3.12109,399.916 3.125,399.945 3.12891,399.968 3.13281,399.985 3.13672,399.995 3.14062,400 3.14453,399.998 3.14844,399.991 3.15234,399.977 3.15625,399.957 3.16016,399.931 3.16406,399.899 3.16797,399.861 3.17188,399.817 3.17578,399.766 3.17969,399.71 3.18359,399.647 3.1875,399.579 3.19141,399.504 3.19531,399.423 3.19922,399.336 3.20312,399.243 3.20703,399.144 3.21094,399.039 3.21484,398.927 3.21875,398.81 3.22266,398.686 3.22656,398.557 3.23047,398.421 3.23438,398.28 3.23828,398.132 3.24219,397.978 3.24609,397.818 3.25,397.652 3.25391,397.48 3.25781,397.302 3.26172,397.117 3.26562,396.927 3.26953,396.731 3.27344,396.528 3.27734,396.32 3.28125,396.106 3.28516,395.885 3.28906,395.658 3.29297,395.426 3.29688,395.187 3.30078,394.942 3.30469,394.692 3.30859,394.435 3.3125,394.172 3.31641,393.904 3.32031,393.629 3.32422,393.348 3.32812,393.061 3.33203,392.769 3.33594,392.47 3.33984,392.165 3.34375,391.854 3.34766,391.538 3.35156,391.215 3.35547,390.886 3.35938,390.552 3.36328,390.211 3.36719,389.864 3.37109,389.512 3.375,389.154 3.37891,388.789 3.38281,388.419 3.38672,388.043 3.39062,387.661 3.39453,387.272 3.39844,386.879 3.40234,386.479 3.40625,386.073 3.41016,385.661 3.41406,385.244 3.41797,384.82 3.42188,384.391 3.42578,383.956 3.42969,383.515 3.43359,383.068 3.4375,382.615 3.44141,382.157 3.44531,381.692 3.44922,381.222 3.45312,380.746 3.45703,380.264 3.46094,379.777 3.46484,379.283 3.46875,378.784 3.47266,378.279 3.47656,377.768 3.48047,377.252 3.48438,376.729 3.48828,376.201 3.49219,375.667 3.49609,375.128 3.5,374.583 3.50391,374.032 3.50781,373.475 3.51172,372.913 3.51562,372.345 3.51953,371.771 3.52344,371.192 3.52734,370.606 3.53125,370.016 3.53516,369.419 3.53906,368.817 3.54297,368.21 3.54688,367.596 3.55078,366.978 3.55469,366.353 3.55859,365.723 3.5625,365.087 3.56641,364.446 3.57031,363.799 3.57422,363.147 3.57812,362.489 3.58203,361.826 3.58594,361.157 3.58984,360.483 3.59375,359.803 3.59766,359.117 3.60156,358.426 3.60547,357.73 3.60938,357.028 3.61328,356.321 3.61719,355.608 3.62109,354.89 3.625,354.167 3.62891,353.438 3.63281,352.703 3.63672,351.964 3.64062,351.218 3.64453,350.468 3.64844,349.712 3.65234,348.951 3.65625,348.185 3.66016,347.413 3.66406,346.636 3.66797,345.853 3.67188,345.066 3.67578,344.273 3.67969,343.475 3.68359,342.671 3.6875,341.863 3.69141,341.049 3.69531,340.23 3.69922,339.405 3.70312,338.576 3.70703,337.741 3.71094,336.902 3.71484,336.057 3.71875,335.207 3.72266,334.352 3.72656,333.491 3.73047,332.626 3.73438,331.756 3.73828,330.88 3.74219,330 3.74609,329.114 3.75,328.224 3.75391,327.328 3.75781,326.428 3.76172,325.522 3.76562,324.612 3.76953,323.696 3.77344,322.776 3.77734,321.85 3.78125,320.92 3.78516,319.985 3.78906,319.045 3.79297,318.1 3.79688,317.15 3.80078,316.196 3.80469,315.236 3.80859,314.272 3.8125,313.303 3.81641,312.329 3.82031,311.351 3.82422,310.368 3.82812,309.379 3.83203,308.387 3.83594,307.389 3.83984,306.387 3.84375,305.38 3.84766,304.369 3.85156,303.353 3.85547,302.332 3.85938,301.306 3.86328,300.276 3.86719,299.242 3.87109,298.203 3.875,297.159 3.87891,296.111 3.88281,295.058 3.88672,294.001 3.89062,292.939 3.89453,291.873 3.89844,290.802 3.90234,289.727" style="fill:rgb(255,255,255);fill-opacity:0;stroke:rgb(0,255,255);stroke-opacity:1;stroke-width:0.00975586"/>
</svg>
