<?xml version="1.0" encoding="utf-8"?>
<svg style="fill:rgb(255,255,255);fill-opacity:0;stroke:rgb(0,0,0);stroke-opacity:1;stroke-width:2">
	<rect height="400" rx="0" ry="0" style="fill:rgb(255,255,255);fill-opacity:1;stroke:rgb(0,0,0);stroke-opacity:1;stroke-width:0" width="650" x="0" y="0"/>
	<line style="fill:rgb(255,255,255);fill-opacity:0;stroke:rgb(0,0,0);stroke-opacity:1;stroke-width:1" x1="10" x2="640" y1="390" y2="390"/>
	<line style="fill:rgb(255,255,255);fill-opacity:0;stroke:rgb(0,0,0);stroke-opacity:1;stroke-width:1" x1="10" x2="10" y1="390" y2="10"/>
	<line stroke-dasharray="1, 1" style="fill:rgb(255,255,255);fill-opacity:0;stroke:rgb(66,66,66);stroke-opacity:1;stroke-width:1" x1="10" x2="640" y1="10" y2="10"/>
	<line stroke-dasharray="1, 1" style="fill:rgb(255,255,255);fill-opacity:0;stroke:rgb(66,66,66);stroke-opacity:1;stroke-width:1" x1="10" x2="640" y1="48" y2="48"/>
	<line stroke-dasharray="1, 1" style="fill:rgb(255,255,255);fill-opacity:0;stroke:rgb(66,66,66);stroke-opacity:1;stroke-width:1" x1="10" x2="640" y1="86" y2="86"/>
	<line stroke-dasharray="1, 1" style="fill:rgb(255,255,255);fill-opacity:0;stroke:rgb(66,66,66);stroke-opacity:1;stroke-width:1" x1="10" x2="640" y1="124" y2="124"/>
	<line stroke-dasharray="1, 1" style="fill:rgb(255,255,255);fill-opacity:0;stroke:rgb(66,66,66);stroke-opacity:1;stroke-width:1" x1="10" x2="640" y1="162" y2="162"/>
	<line stroke-dasharray="1, 1" style="fill:rgb(255,255,255);fill-opacity:0;stroke:rgb(66,66,66);stroke-opacity:1;stroke-width:1" x1="10" x2="640" y1="200" y2="200"/>
	<line stroke-dasharray="1, 1" style="fill:rgb(255,255,255);fill-opacity:0;stroke:rgb(66,66,66);stroke-opacity:1;stroke-width:1" x1="10" x2="640" y1="238" y2="238"/>
	<line stroke-dasharray="1, 1" style="fill:rgb(255,255,255);fill-opacity:0;stroke:rgb(66,66,66);stroke-opacity:1;stroke-width:1" x1="10" x2="640" y1="276" y2="276"/>
	<line stroke-dasharray="1, 1" style="fill:rgb(255,255,255);fill-opacity:0;stroke:rgb(66,66,66);stroke-opacity:1;stroke-width:1" x1="10" x2="640" y1="314" y2="314"/>
	<line stroke-dasharray="1, 1" style="fill:rgb(255,255,255);fill-opacity:0;stroke:rgb(66,66,66);stroke-opacity:1;stroke-width:1" x1="10" x2="640" y1="352" y2="352"/>
	<line stroke-dasharray="1, 1" style="fill:rgb(255,255,255);fill-opacity:0;stroke:rgb(66,66,66);stroke-opacity:1;stroke-width:1" x1="10" x2="640" y1="390" y2="390"/>
	<line stroke-dasharray="1, 1" style="fill:rgb(255,255,255);fill-opacity:0;stroke:rgb(66,66,66);stroke-opacity:1;stroke-width:1" x1="10" x2="10" y1="10" y2="390"/>
	<line stroke-dasharray="1, 1" style="fill:rgb(255,255,255);fill-opacity:0;stroke:rgb(66,66,66);stroke-opacity:1;stroke-width:1" x1="73" x2="73" y1="10" y2="390"/>
	<line stroke-dasharray="1, 1" style="fill:rgb(255,255,255);fill-opacity:0;stroke:rgb(66,66,66);stroke-opacity:1;stroke-width:1" x1="136" x2="136" y1="10" y2="390"/>
	<line stroke-dasharray="1, 1" style="fill:rgb(255,255,255);fill-opacity:0;stroke:rgb(66,66,66);stroke-opacity:1;stroke-width:1" x1="199" x2="199" y1="10" y2="390"/>
	<line stroke-dasharray="1, 1" style="fill:rgb(255,255,255);fill-opacity:0;stroke:rgb(66,66,66);stroke-opacity:1;stroke-width:1" x1="262" x2="262" y1="10" y2="390"/>
	<line stroke-dasharray="1, 1" style="fill:rgb(255,255,255);fill-opacity:0;stroke:rgb(66,66,66);stroke-opacity:1;stroke-width:1" x1="325" x2="325" y1="10" y2="390"/>
	<line stroke-dasharray="1, 1" style="fill:rgb(255,255,255);fill-opacity:0;stroke:rgb(66,66,66);stroke-opacity:1;stroke-width:1" x1="388" x2="388" y1="10" y2="390"/>
	<line stroke-dasharray="1, 1" style="fill:rgb(255,255,255);fill-opacity:0;stroke:rgb(66,66,66);stroke-opacity:1;stroke-width:1" x1="451" x2="451" y1="10" y2="390"/>
	<line stroke-dasharray="1, 1" style="fill:rgb(255,255,255);fill-opacity:0;stroke:rgb(66,66,66);stroke-opacity:1;stroke-width:1" x1="514" x2="514" y1="10" y2="390"/>
	<line stroke-dasharray="1, 1" style="fill:rgb(255,255,255);fill-opacity:0;stroke:rgb(66,66,66);stroke-opacity:1;stroke-width:1" x1="577" x2="577" y1="10" y2="390"/>
	<line stroke-dasharray="1, 1" style="fill:rgb(255,255,255);fill-opacity:0;stroke:rgb(66,66,66);stroke-opacity:1;stroke-width:1" x1="640" x2="640" y1="10" y2="390"/>
	<polyline points="10,10 13.15,17.5431 16.3,25.0105 19.45,32.402 22.6,39.7177 25.75,46.9576 28.9,54.1217 32.05,61.21 35.2,68.2224 38.35,75.1591 41.5,82.02 44.65,88.805 47.8,95.5142 50.95,102.148 54.1,108.705 57.25,115.187 60.4,121.593 63.55,127.923 66.7,134.178 69.85,140.356 73,146.459 76.15,152.486 79.3,158.437 82.45,164.312 85.6,170.112 88.75,175.835 91.9,181.483 95.05,187.055 98.2,192.552 101.35,197.972 104.5,203.317 107.65,208.586 110.8,213.779 113.95,218.896 117.1,223.937 120.25,228.903 123.4,233.793 126.55,238.606 129.7,243.345 132.85,248.007 136,252.594 139.15,257.104 142.3,261.539 145.45,265.898 148.6,270.182 151.75,274.389 154.9,278.521 158.05,282.577 161.2,286.557 164.35,290.461 167.5,294.289 170.65,298.042 173.8,301.719 176.95,305.32 180.1,308.845 183.25,312.294 186.4,315.668 189.55,318.966 192.7,322.188 195.85,325.334 199,328.404 202.15,331.399 205.3,334.317 208.45,337.16 211.6,339.927 214.75,342.618 217.9,345.234 221.05,347.774 224.2,350.237 227.35,352.625 230.5,354.938 233.65,357.174 236.8,359.335 239.95,361.419 243.1,363.428 246.25,365.362 249.4,367.219 252.55,369 255.7,370.706 258.85,372.336 262,373.89 265.15,375.369 268.3,376.771 271.45,378.098 274.6,379.349 277.75,380.524 280.9,381.623 284.05,382.646 287.2,383.594 290.35,384.466 293.5,385.262 296.65,385.982 299.8,386.626 302.95,387.195 306.1,387.688 309.25,388.105 312.4,388.446 315.55,388.711 318.7,388.901 321.85,389.014 325,389.052 328.15,389.014 331.3,388.901 334.45,388.711 337.6,388.446 340.75,388.105 343.9,387.688 347.05,387.195 350.2,386.626 353.35,385.982 356.5,385.262 359.65,384.466 362.8,383.594 365.95,382.646 369.1,381.623 372.25,380.524 375.4,379.349 378.55,378.098 381.7,376.771 384.85,375.369 388,373.89 391.15,372.336 394.3,370.706 397.45,369 400.6,367.219 403.75,365.362 406.9,363.428 410.05,361.419 413.2,359.335 416.35,357.174 419.5,354.938 422.65,352.625 425.8,350.237 428.95,347.774 432.1,345.234 435.25,342.618 438.4,339.927 441.55,337.16 444.7,334.317 447.85,331.399 451,328.404 454.15,325.334 457.3,322.188 460.45,318.966 463.6,315.668 466.75,312.294 469.9,308.845 473.05,305.32 476.2,301.719 479.35,298.042 482.5,294.289 485.65,290.461 488.8,286.557 491.95,282.577 495.1,278.521 498.25,274.389 501.4,270.182 504.55,265.898 507.7,261.539 510.85,257.104 514,252.594 517.15,248.007 520.3,243.345 523.45,238.606 526.6,233.793 529.75,228.903 532.9,223.937 536.05,218.896 539.2,213.779 542.35,208.586 545.5,203.317 548.65,197.972 551.8,192.552 554.95,187.055 558.1,181.483 561.25,175.835 564.4,170.112 567.55,164.312 570.7,158.437 573.85,152.486 577,146.459 580.15,140.356 583.3,134.178 586.45,127.923 589.6,121.593 592.75,115.187 595.9,108.705 599.05,102.148 602.2,95.5142 605.35,88.805 608.5,82.02 611.65,75.1591 614.8,68.2224 617.95,61.21 621.1,54.1217 624.25,46.9576 627.4,39.7177 630.55,32.402 633.7,25.0105 636.85,17.5431 640,10" style="fill:rgb(255,255,255);fill-opacity:0;stroke:rgb(255,0,0);stroke-opacity:1;stroke-width:1"/>
	<polyline points="10,389.052 13.15,389.09 16.3,389.127 19.45,389.163 22.6,389.198 25.75,389.232 28.9,389.266 32.05,389.299 35.2,389.331 38.35,389.363 41.5,389.394 44.65,389.423 47.8,389.453 50.95,389.481 54.1,389.509 57.25,389.536 60.4,389.562 63.55,389.587 66.7,389.612 69.85,389.636 73,389.659 76.15,389.681 79.3,389.703 82.45,389.724 85.6,389.744 88.75,389.763 91.9,389.782 95.05,389.799 98.2,389.817 101.35,389.833 104.5,389.848 107.65,389.863 110.8,389.877 113.95,389.89 117.1,389.903 120.25,389.915 123.4,389.926 126.55,389.936 129.7,389.945 132.85,389.954 136,389.962 139.15,389.969 142.3,389.976 145.45,389.981 148.6,389.986 151.75,389.991 154.9,389.994 158.05,389.997 161.2,389.998 164.35,390 167.5,390 170.65,390 173.8,389.998 176.95,389.997 180.1,389.994 183.25,389.991 186.4,389.986 189.55,389.981 192.7,389.976 195.85,389.969 199,389.962 202.15,389.954 205.3,389.945 208.45,389.936 211.6,389.926 214.75,389.915 217.9,389.903 221.05,389.89 224.2,389.877 227.35,389.863 230.5,389.848 233.65,389.833 236.8,389.817 239.95,389.799 243.1,389.782 246.25,389.763 249.4,389.744 252.55,389.724 255.7,389.703 258.85,389.681 262,389.659 265.15,389.636 268.3,389.612 271.45,389.587 274.6,389.562 277.75,389.536 280.9,389.509 284.05,389.481 287.2,389.453 290.35,389.423 293.5,389.394 296.65,389.363 299.8,389.331 302.95,389.299 306.1,389.266 309.25,389.232 312.4,389.198 315.55,389.163 318.7,389.127 321.85,389.09 325,389.052 328.15,389.014 331.3,388.975 334.45,388.935 337.6,388.895 340.75,388.853 343.9,388.811 347.05,388.768 350.2,388.725 353.35,388.681 356.5,388.635 359.65,388.59 362.8,388.543 365.95,388.496 369.1,388.447 372.25,388.399 375.4,388.349 378.55,388.298 381.7,388.247 384.85,388.195 388,388.143 391.15,388.089 394.3,388.035 397.45,387.98 400.6,387.924 403.75,387.868 406.9,387.811 410.05,387.753 413.2,387.694 416.35,387.634 419.5,387.574 422.65,387.513 425.8,387.451 428.95,387.389 432.1,387.325 435.25,387.261 438.4,387.197 441.55,387.131 444.7,387.065 447.85,386.998 451,386.93 454.15,386.861 457.3,386.792 460.45,386.722 463.6,386.651 466.75,386.579 469.9,386.507 473.05,386.433 476.2,386.36 479.35,386.285 482.5,386.209 485.65,386.133 488.8,386.056 491.95,385.979 495.1,385.9 498.25,385.821 501.4,385.741 504.55,385.66 507.7,385.579 510.85,385.496 514,385.413 517.15,385.33 520.3,385.245 523.45,385.16 526.6,385.074 529.75,384.987 532.9,384.899 536.05,384.811 539.2,384.722 542.35,384.632 545.5,384.542 548.65,384.45 551.8,384.358 554.95,384.265 558.1,384.172 561.25,384.077 564.4,383.982 567.55,383.886 570.7,383.79 573.85,383.692 577,383.594 580.15,383.495 583.3,383.395 586.45,383.295 589.6,383.194 592.75,383.092 595.9,382.989 599.05,382.886 602.2,382.781 605.35,382.676 608.5,382.571 611.65,382.464 614.8,382.357 617.95,382.249 621.1,382.14 624.25,382.03 627.4,381.92 630.55,381.809 633.7,381.697 636.85,381.585 640,381.471" style="fill:rgb(255,255,255);fill-opacity:0;stroke:rgb(0,255,0);stroke-opacity:1;stroke-width:1"/>
</svg>
